<?xml version='1.0' encoding='utf-8'?>
<svg xmlns="http://www.w3.org/2000/svg" fill-opacity="0" color-rendering="auto" color-interpolation="auto" text-rendering="auto" stroke="rgb(0,0,0)" stroke-linecap="square" width="741" stroke-miterlimit="10" shape-rendering="auto" stroke-opacity="0" fill="rgb(0,0,0)" stroke-dasharray="none" font-weight="normal" stroke-width="1" height="432" font-family="'Dialog'" font-style="normal" stroke-linejoin="miter" font-size="12px" stroke-dashoffset="0" image-rendering="auto"><defs id="genericDefs" /><g><defs id="defs1"><clipPath clipPathUnits="userSpaceOnUse" id="clipPath1"><path d="M-7 -7 L71 -7 L71 437 L-7 437 L-7 -7 Z" /></clipPath><clipPath clipPathUnits="userSpaceOnUse" id="clipPath2"><path d="M-7 -7 L81 -7 L81 437 L-7 437 L-7 -7 Z" /></clipPath><clipPath clipPathUnits="userSpaceOnUse" id="clipPath3"><path d="M-7 -7 L136 -7 L136 437 L-7 437 L-7 -7 Z" /></clipPath><clipPath clipPathUnits="userSpaceOnUse" id="clipPath4"><path d="M-7 -7 L20 -7 L20 308 L-7 308 L-7 -7 Z" /></clipPath><clipPath clipPathUnits="userSpaceOnUse" id="clipPath5"><path d="M-7 -7 L19 -7 L19 62 L-7 62 L-7 -7 Z" /></clipPath><clipPath clipPathUnits="userSpaceOnUse" id="clipPath6"><path d="M-7 -7 L19 -7 L19 55 L-7 55 L-7 -7 Z" /></clipPath><clipPath clipPathUnits="userSpaceOnUse" id="clipPath7"><path d="M-125 -16 L250 -16 L250 32 L-125 32 L-125 -16 Z" /></clipPath><clipPath clipPathUnits="userSpaceOnUse" id="clipPath8"><path d="M-70 -16 L140 -16 L140 32 L-70 32 L-70 -16 Z" /></clipPath><clipPath clipPathUnits="userSpaceOnUse" id="clipPath9"><path d="M-80 -16 L160 -16 L160 32 L-80 32 L-80 -16 Z" /></clipPath><clipPath clipPathUnits="userSpaceOnUse" id="clipPath10"><path d="M0 0 L368 0 L368 75 L0 75 L0 0 Z" /></clipPath><clipPath clipPathUnits="userSpaceOnUse" id="clipPath11"><path d="M340 14 L340 30 L20 30 L20 14 ZM72 0 L72 5 L0 5 L0 75 L368 75 L368 0 Z" /></clipPath><clipPath clipPathUnits="userSpaceOnUse" id="clipPath12"><path d="M0 0 L400 0 L400 75 L0 75 L0 0 Z" /></clipPath><clipPath clipPathUnits="userSpaceOnUse" id="clipPath13"><path d="M308 14 L308 30 L79 30 L79 14 ZM293 48 L293 63 L97 63 L97 48 ZM38 0 L38 10 L0 10 L0 75 L400 75 L400 0 Z" /></clipPath><clipPath clipPathUnits="userSpaceOnUse" id="clipPath14"><path d="M293 15 L293 30 L97 30 L97 15 ZM0 0 L0 75 L400 75 L400 0 Z" /></clipPath><clipPath clipPathUnits="userSpaceOnUse" id="clipPath15"><path d="M296 12 L296 27 L64 27 L64 12 ZM277 57 L277 73 L87 73 L87 57 ZM0 0 L0 75 L368 75 L368 0 Z" /></clipPath><clipPath clipPathUnits="userSpaceOnUse" id="clipPath16"><path d="M277 15 L277 31 L87 31 L87 15 ZM0 0 L0 75 L368 75 L368 63 L302 63 L302 48 L368 48 L368 0 Z" /></clipPath><clipPath clipPathUnits="userSpaceOnUse" id="clipPath17"><path d="M320 46 L320 62 L75 62 L75 46 ZM0 0 L0 15 L392 15 L392 30 L0 30 L0 75 L400 75 L400 0 Z" /></clipPath><clipPath clipPathUnits="userSpaceOnUse" id="clipPath18"><path d="M320 14 L320 30 L75 30 L75 14 ZM0 0 L0 47 L3 47 L3 63 L0 63 L0 75 L400 75 L400 0 Z" /></clipPath><clipPath clipPathUnits="userSpaceOnUse" id="clipPath19"><path d="M305 15 L305 31 L57 31 L57 15 ZM0 0 L0 75 L368 75 L368 0 Z" /></clipPath><clipPath clipPathUnits="userSpaceOnUse" id="clipPath20"><path d="M297 15 L297 30 L65 30 L65 15 ZM0 0 L0 75 L368 75 L368 0 Z" /></clipPath><clipPath clipPathUnits="userSpaceOnUse" id="clipPath21"><path d="M0 0 L105 0 L105 95 L0 95 L0 0 Z" /></clipPath><clipPath clipPathUnits="userSpaceOnUse" id="clipPath22"><path d="M3 0 L3 7 L0 7 L0 95 L105 95 L105 53 L70 53 L70 37 L105 37 L105 0 Z" /></clipPath><clipPath clipPathUnits="userSpaceOnUse" id="clipPath23"><path d="M-168 -16 L336 -16 L336 32 L-168 32 L-168 -16 Z" /></clipPath><clipPath clipPathUnits="userSpaceOnUse" id="clipPath24"><path d="M-232 -15 L464 -15 L464 30 L-232 30 L-232 -15 Z" /></clipPath><clipPath clipPathUnits="userSpaceOnUse" id="clipPath25"><path d="M-248 -16 L496 -16 L496 32 L-248 32 L-248 -16 Z" /></clipPath><clipPath clipPathUnits="userSpaceOnUse" id="clipPath26"><path d="M-245 -16 L490 -16 L490 32 L-245 32 L-245 -16 Z" /></clipPath><clipPath clipPathUnits="userSpaceOnUse" id="clipPath27"><path d="M-392 -15 L784 -15 L784 30 L-392 30 L-392 -15 Z" /></clipPath><clipPath clipPathUnits="userSpaceOnUse" id="clipPath28"><path d="M-190 -16 L380 -16 L380 32 L-190 32 L-190 -16 Z" /></clipPath><clipPath clipPathUnits="userSpaceOnUse" id="clipPath29"><path d="M-196 -15 L392 -15 L392 30 L-196 30 L-196 -15 Z" /></clipPath><clipPath clipPathUnits="userSpaceOnUse" id="clipPath30"><path d="M-229 -16 L458 -16 L458 32 L-229 32 L-229 -16 Z" /></clipPath><clipPath clipPathUnits="userSpaceOnUse" id="clipPath31"><path d="M-320 -16 L640 -16 L640 32 L-320 32 L-320 -16 Z" /></clipPath></defs><g fill="white" text-rendering="geometricPrecision" fill-opacity="1" stroke-opacity="1" stroke="white"><rect x="0" width="741" height="432" y="0" stroke="none" /></g><g font-size="11px" transform="translate(12,2)" fill-opacity="1" fill="rgb(122,207,245)" text-rendering="geometricPrecision" image-rendering="optimizeQuality" font-family="sans-serif" stroke="rgb(122,207,245)" stroke-opacity="1"><circle r="5" clip-path="url(#clipPath1)" cx="30" cy="5" stroke="none" /><rect x="26" width="8" height="374" y="51" clip-path="url(#clipPath1)" stroke="none" /></g><g stroke-linecap="butt" font-size="11px" transform="translate(12,2)" fill-opacity="1" fill="black" text-rendering="geometricPrecision" image-rendering="optimizeQuality" font-family="sans-serif" stroke-linejoin="round" stroke="black" stroke-opacity="1" stroke-miterlimit="0"><circle fill="none" r="5" clip-path="url(#clipPath1)" cx="30" cy="5" /><rect fill="none" x="26" width="8" height="374" y="51" clip-path="url(#clipPath1)" /><line y2="25" fill="none" x1="30" clip-path="url(#clipPath1)" x2="30" y1="10" /><line y2="36" fill="none" x1="30" clip-path="url(#clipPath1)" x2="21" y1="25" /><line y2="36" fill="none" x1="30" clip-path="url(#clipPath1)" x2="39" y1="25" /><line y2="16" fill="none" x1="21" clip-path="url(#clipPath1)" x2="39" y1="16" /></g><g font-size="11px" transform="translate(308,2)" fill-opacity="1" fill="rgb(122,207,245)" text-rendering="geometricPrecision" image-rendering="optimizeQuality" font-family="sans-serif" stroke="rgb(122,207,245)" stroke-opacity="1"><rect x="0" width="69" height="35" y="0" clip-path="url(#clipPath2)" stroke="none" /></g><g stroke-linecap="butt" font-size="11px" transform="translate(308,2)" fill-opacity="1" fill="black" text-rendering="geometricPrecision" image-rendering="optimizeQuality" font-family="sans-serif" stroke-linejoin="round" stroke="black" stroke-opacity="1" stroke-miterlimit="0"><rect fill="none" x="0" width="69" height="35" y="0" clip-path="url(#clipPath2)" /><line clip-path="url(#clipPath2)" fill="none" x1="34" x2="34" y1="35" y2="426" stroke-linejoin="bevel" stroke-dasharray="8,3" /></g><g font-size="11px" transform="translate(613,2)" fill-opacity="1" fill="rgb(122,207,245)" text-rendering="geometricPrecision" image-rendering="optimizeQuality" font-family="sans-serif" stroke="rgb(122,207,245)" stroke-opacity="1"><rect x="0" width="124" height="35" y="0" clip-path="url(#clipPath3)" stroke="none" /></g><g stroke-linecap="butt" font-size="11px" transform="translate(613,2)" fill-opacity="1" fill="black" text-rendering="geometricPrecision" image-rendering="optimizeQuality" font-family="sans-serif" stroke-linejoin="round" stroke="black" stroke-opacity="1" stroke-miterlimit="0"><rect fill="none" x="0" width="124" height="35" y="0" clip-path="url(#clipPath3)" /><line clip-path="url(#clipPath3)" fill="none" x1="62" x2="62" y1="35" y2="426" stroke-linejoin="bevel" stroke-dasharray="8,3" /></g><g font-size="11px" transform="translate(339,75)" fill-opacity="1" fill="rgb(122,207,245)" text-rendering="geometricPrecision" image-rendering="optimizeQuality" font-family="sans-serif" stroke="rgb(122,207,245)" stroke-opacity="1"><rect x="0" width="9" height="297" y="0" clip-path="url(#clipPath4)" stroke="none" /></g><g stroke-linecap="butt" font-size="11px" transform="translate(339,75)" fill-opacity="1" fill="black" text-rendering="geometricPrecision" image-rendering="optimizeQuality" font-family="sans-serif" stroke-linejoin="round" stroke="black" stroke-opacity="1" stroke-miterlimit="0"><rect fill="none" x="0" width="9" height="297" y="0" clip-path="url(#clipPath4)" /></g><g font-size="11px" transform="translate(672,97)" fill-opacity="1" fill="rgb(122,207,245)" text-rendering="geometricPrecision" image-rendering="optimizeQuality" font-family="sans-serif" stroke="rgb(122,207,245)" stroke-opacity="1"><rect x="0" width="8" height="51" y="0" clip-path="url(#clipPath5)" stroke="none" /></g><g stroke-linecap="butt" font-size="11px" transform="translate(672,97)" fill-opacity="1" fill="black" text-rendering="geometricPrecision" image-rendering="optimizeQuality" font-family="sans-serif" stroke-linejoin="round" stroke="black" stroke-opacity="1" stroke-miterlimit="0"><rect fill="none" x="0" width="8" height="51" y="0" clip-path="url(#clipPath5)" /></g><g font-size="11px" transform="translate(672,226)" fill-opacity="1" fill="rgb(122,207,245)" text-rendering="geometricPrecision" image-rendering="optimizeQuality" font-family="sans-serif" stroke="rgb(122,207,245)" stroke-opacity="1"><rect x="0" width="8" height="44" y="0" clip-path="url(#clipPath6)" stroke="none" /></g><g stroke-linecap="butt" font-size="11px" transform="translate(672,226)" fill-opacity="1" fill="black" text-rendering="geometricPrecision" image-rendering="optimizeQuality" font-family="sans-serif" stroke-linejoin="round" stroke="black" stroke-opacity="1" stroke-miterlimit="0"><rect fill="none" x="0" width="8" height="44" y="0" clip-path="url(#clipPath6)" /></g><g font-size="11px" transform="translate(613,2)" fill-opacity="1" fill="black" text-rendering="geometricPrecision" image-rendering="optimizeQuality" font-family="sans-serif" stroke="black" stroke-opacity="1"><text x="10" xml:space="preserve" y="12" clip-path="url(#clipPath7)" stroke="none">Warstwa serwerowa</text></g><g font-size="11px" transform="translate(308,2)" fill-opacity="1" fill="black" text-rendering="geometricPrecision" image-rendering="optimizeQuality" font-family="sans-serif" stroke="black" stroke-opacity="1"><text x="12" xml:space="preserve" y="12" clip-path="url(#clipPath8)" stroke="none">Interfejs</text></g><g font-size="11px" transform="translate(2,37)" fill-opacity="1" fill="black" text-rendering="geometricPrecision" image-rendering="optimizeQuality" font-family="sans-serif" stroke="black" stroke-opacity="1"><text x="10" xml:space="preserve" y="12" clip-path="url(#clipPath9)" stroke="none">Użytkownik</text></g><g stroke-linecap="butt" font-size="11px" transform="translate(10,48)" fill-opacity="1" fill="black" text-rendering="geometricPrecision" image-rendering="optimizeQuality" font-family="sans-serif" stroke-linejoin="round" stroke="black" stroke-opacity="1"><line y2="36" fill="none" x1="36" clip-path="url(#clipPath11)" x2="329" y1="36" /><polygon points=" 329 36 317 30 317 42" clip-path="url(#clipPath11)" stroke="none" /><polygon fill="none" points=" 329 36 317 30 317 42" clip-path="url(#clipPath11)" /></g><g stroke-linecap="butt" font-size="11px" transform="translate(312,68)" fill-opacity="1" fill="black" text-rendering="geometricPrecision" image-rendering="optimizeQuality" font-family="sans-serif" stroke-linejoin="round" stroke="black" stroke-opacity="1"><line y2="36" fill="none" x1="36" clip-path="url(#clipPath13)" x2="360" y1="36" /><polygon points=" 360 36 348 30 348 42" clip-path="url(#clipPath13)" stroke="none" /><polygon fill="none" points=" 360 36 348 30 348 42" clip-path="url(#clipPath13)" /></g><g fill-opacity="1" text-rendering="geometricPrecision" stroke="black" stroke-linecap="butt" transform="translate(312,101)" stroke-miterlimit="0" stroke-opacity="1" fill="black" stroke-dasharray="8,3" font-family="sans-serif" stroke-linejoin="round" font-size="11px" image-rendering="optimizeQuality"><line y2="36" fill="none" x1="360" clip-path="url(#clipPath14)" x2="36" y1="36" /><line clip-path="url(#clipPath14)" fill="none" x1="36" x2="48" y1="36" y2="42" stroke-dasharray="none" stroke-miterlimit="10" /><line clip-path="url(#clipPath14)" fill="none" x1="36" x2="48" y1="36" y2="30" stroke-dasharray="none" stroke-miterlimit="10" /></g><g stroke-linecap="butt" font-size="11px" transform="translate(10,116)" fill-opacity="1" fill="black" text-rendering="geometricPrecision" image-rendering="optimizeQuality" font-family="sans-serif" stroke-linejoin="round" stroke="black" stroke-opacity="1"><line y2="36" fill="none" x1="329" clip-path="url(#clipPath15)" x2="36" y1="36" /><polygon points=" 36 36 48 42 48 30" clip-path="url(#clipPath15)" stroke="none" /><polygon fill="none" points=" 36 36 48 42 48 30" clip-path="url(#clipPath15)" /></g><g stroke-linecap="butt" font-size="11px" transform="translate(10,158)" fill-opacity="1" fill="black" text-rendering="geometricPrecision" image-rendering="optimizeQuality" font-family="sans-serif" stroke-linejoin="round" stroke="black" stroke-opacity="1"><line y2="36" fill="none" x1="36" clip-path="url(#clipPath16)" x2="329" y1="36" /><polygon points=" 329 36 317 30 317 42" clip-path="url(#clipPath16)" stroke="none" /><polygon fill="none" points=" 329 36 317 30 317 42" clip-path="url(#clipPath16)" /></g><g stroke-linecap="butt" font-size="11px" transform="translate(312,191)" fill-opacity="1" fill="black" text-rendering="geometricPrecision" image-rendering="optimizeQuality" font-family="sans-serif" stroke-linejoin="round" stroke="black" stroke-opacity="1"><line y2="36" fill="none" x1="36" clip-path="url(#clipPath17)" x2="360" y1="36" /><polygon points=" 360 36 348 30 348 42" clip-path="url(#clipPath17)" stroke="none" /><polygon fill="none" points=" 360 36 348 30 348 42" clip-path="url(#clipPath17)" /></g><g fill-opacity="1" text-rendering="geometricPrecision" stroke="black" stroke-linecap="butt" transform="translate(312,223)" stroke-miterlimit="0" stroke-opacity="1" fill="black" stroke-dasharray="8,3" font-family="sans-serif" stroke-linejoin="round" font-size="11px" image-rendering="optimizeQuality"><line y2="36" fill="none" x1="360" clip-path="url(#clipPath18)" x2="36" y1="36" /><line clip-path="url(#clipPath18)" fill="none" x1="36" x2="48" y1="36" y2="42" stroke-dasharray="none" stroke-miterlimit="10" /><line clip-path="url(#clipPath18)" fill="none" x1="36" x2="48" y1="36" y2="30" stroke-dasharray="none" stroke-miterlimit="10" /></g><g stroke-linecap="butt" font-size="11px" transform="translate(10,255)" fill-opacity="1" fill="black" text-rendering="geometricPrecision" image-rendering="optimizeQuality" font-family="sans-serif" stroke-linejoin="round" stroke="black" stroke-opacity="1"><line y2="36" fill="none" x1="36" clip-path="url(#clipPath19)" x2="329" y1="36" /><polygon points=" 329 36 317 30 317 42" clip-path="url(#clipPath19)" stroke="none" /><polygon fill="none" points=" 329 36 317 30 317 42" clip-path="url(#clipPath19)" /></g><g stroke-linecap="butt" font-size="11px" transform="translate(10,333)" fill-opacity="1" fill="black" text-rendering="geometricPrecision" image-rendering="optimizeQuality" font-family="sans-serif" stroke-linejoin="round" stroke="black" stroke-opacity="1"><line y2="36" fill="none" x1="329" clip-path="url(#clipPath20)" x2="36" y1="36" /><polygon points=" 36 36 48 42 48 30" clip-path="url(#clipPath20)" stroke="none" /><polygon fill="none" points=" 36 36 48 42 48 30" clip-path="url(#clipPath20)" /></g><g stroke-linecap="butt" font-size="11px" transform="translate(312,279)" fill-opacity="1" fill="black" text-rendering="geometricPrecision" image-rendering="optimizeQuality" font-family="sans-serif" stroke-linejoin="round" stroke="black" stroke-opacity="1"><line y2="36" fill="none" x1="36" clip-path="url(#clipPath22)" x2="65" y1="36" /><line y2="56" fill="none" x1="65" clip-path="url(#clipPath22)" x2="65" y1="36" /><line y2="56" fill="none" x1="65" clip-path="url(#clipPath22)" x2="36" y1="56" /><polygon points=" 36 56 48 62 48 50" clip-path="url(#clipPath22)" stroke="none" /><polygon fill="none" points=" 36 56 48 62 48 50" clip-path="url(#clipPath22)" /></g><g font-size="11px" transform="translate(382,316)" fill-opacity="1" fill="white" text-rendering="geometricPrecision" image-rendering="optimizeQuality" font-family="sans-serif" stroke="white" stroke-opacity="1"><rect x="0" width="168" height="16" y="0" clip-path="url(#clipPath23)" stroke="none" /><text fill="black" x="9" xml:space="preserve" y="12" clip-path="url(#clipPath23)" stroke="none">3.1: Przefiltrowanie wyników</text></g><g font-size="11px" transform="translate(75,348)" fill-opacity="1" fill="white" text-rendering="geometricPrecision" image-rendering="optimizeQuality" font-family="sans-serif" stroke="white" stroke-opacity="1"><rect x="0" width="232" height="15" y="0" clip-path="url(#clipPath24)" stroke="none" /><text fill="black" x="10" xml:space="preserve" y="12" clip-path="url(#clipPath24)" stroke="none">3.2: Wyświetlenie odpowiedniego wyniku</text></g><g font-size="11px" transform="translate(67,270)" fill-opacity="1" fill="white" text-rendering="geometricPrecision" image-rendering="optimizeQuality" font-family="sans-serif" stroke="white" stroke-opacity="1"><rect x="0" width="248" height="16" y="0" clip-path="url(#clipPath25)" stroke="none" /><text fill="black" x="11" xml:space="preserve" y="12" clip-path="url(#clipPath25)" stroke="none">3: Wybranie widoku grupy bądź nauczyciela</text></g><g font-size="11px" transform="translate(387,237)" fill-opacity="1" fill="white" text-rendering="geometricPrecision" image-rendering="optimizeQuality" font-family="sans-serif" stroke="white" stroke-opacity="1"><rect x="0" width="245" height="16" y="0" clip-path="url(#clipPath26)" stroke="none" /><text fill="black" x="9" xml:space="preserve" y="12" clip-path="url(#clipPath26)" stroke="none">2.2: Przekazanie listy lekcji, klas i nauczycieli</text></g><g font-size="11px" transform="translate(312,206)" fill-opacity="1" fill="white" text-rendering="geometricPrecision" image-rendering="optimizeQuality" font-family="sans-serif" stroke="white" stroke-opacity="1"><rect x="0" width="392" height="15" y="0" clip-path="url(#clipPath27)" stroke="none" /><text fill="black" x="10" xml:space="preserve" y="12" clip-path="url(#clipPath27)" stroke="none">2.1: Wysłanie prośby o listę lekcji, klas i nauczycieli w danym planie lekcji</text></g><g font-size="11px" transform="translate(97,173)" fill-opacity="1" fill="white" text-rendering="geometricPrecision" image-rendering="optimizeQuality" font-family="sans-serif" stroke="white" stroke-opacity="1"><rect x="0" width="190" height="16" y="0" clip-path="url(#clipPath28)" stroke="none" /><text fill="black" x="9" xml:space="preserve" y="12" clip-path="url(#clipPath28)" stroke="none">2: Użytkownik wybiera plan lekcji</text></g><g font-size="11px" transform="translate(74,128)" fill-opacity="1" fill="white" text-rendering="geometricPrecision" image-rendering="optimizeQuality" font-family="sans-serif" stroke="white" stroke-opacity="1"><rect x="0" width="232" height="15" y="0" clip-path="url(#clipPath24)" stroke="none" /><text fill="black" x="9" xml:space="preserve" y="12" clip-path="url(#clipPath24)" stroke="none">1.3: Wyświetlenie listy planów do wyboru</text></g><g font-size="11px" transform="translate(409,116)" fill-opacity="1" fill="white" text-rendering="geometricPrecision" image-rendering="optimizeQuality" font-family="sans-serif" stroke="white" stroke-opacity="1"><rect x="0" width="196" height="15" y="0" clip-path="url(#clipPath29)" stroke="none" /><text fill="black" x="10" xml:space="preserve" y="12" clip-path="url(#clipPath29)" stroke="none">1.2: Przekazanie listy planów lekcji</text></g><g font-size="11px" transform="translate(391,82)" fill-opacity="1" fill="white" text-rendering="geometricPrecision" image-rendering="optimizeQuality" font-family="sans-serif" stroke="white" stroke-opacity="1"><rect x="0" width="229" height="16" y="0" clip-path="url(#clipPath30)" stroke="none" /><text fill="black" x="10" xml:space="preserve" y="12" clip-path="url(#clipPath30)" stroke="none">1.1: Wysłanie prośby o listę planów lekcji</text></g><g font-size="11px" transform="translate(30,62)" fill-opacity="1" fill="white" text-rendering="geometricPrecision" image-rendering="optimizeQuality" font-family="sans-serif" stroke="white" stroke-opacity="1"><rect x="0" width="320" height="16" y="0" clip-path="url(#clipPath31)" stroke="none" /><text fill="black" x="9" xml:space="preserve" y="12" clip-path="url(#clipPath31)" stroke="none">1: Użytkownik przechodzi w widok oglądania planów lekcji</text></g><g font-size="10px" transform="rotate(-45) translate(-306.3268,0)" fill-opacity="1" fill="rgb(120,120,120)" text-rendering="geometricPrecision" image-rendering="optimizeQuality" stroke="rgb(120,120,120)" stroke-opacity="1"><text x="0" xml:space="preserve" y="0" stroke="none" /><text x="221" xml:space="preserve" y="0" stroke="none" /><text x="442" xml:space="preserve" y="0" stroke="none" /><text x="663" xml:space="preserve" y="0" stroke="none" /><text x="100" xml:space="preserve" y="56" stroke="none" /><text x="321" xml:space="preserve" y="56" stroke="none" /><text x="542" xml:space="preserve" y="56" stroke="none" /><text x="763" xml:space="preserve" y="56" stroke="none" /><text x="0" xml:space="preserve" y="112" stroke="none" /><text x="221" xml:space="preserve" y="112" stroke="none" /><text x="442" xml:space="preserve" y="112" stroke="none" /><text x="663" xml:space="preserve" y="112" stroke="none" /><text x="100" xml:space="preserve" y="168" stroke="none" /><text x="321" xml:space="preserve" y="168" stroke="none" /><text x="542" xml:space="preserve" y="168" stroke="none" /><text x="763" xml:space="preserve" y="168" stroke="none" /><text x="0" xml:space="preserve" y="224" stroke="none" /><text x="221" xml:space="preserve" y="224" stroke="none" /><text x="442" xml:space="preserve" y="224" stroke="none" /><text x="663" xml:space="preserve" y="224" stroke="none" /><text x="100" xml:space="preserve" y="280" stroke="none" /><text x="321" xml:space="preserve" y="280" stroke="none" /><text x="542" xml:space="preserve" y="280" stroke="none" /><text x="763" xml:space="preserve" y="280" stroke="none" /><text x="0" xml:space="preserve" y="336" stroke="none" /><text x="221" xml:space="preserve" y="336" stroke="none" /><text x="442" xml:space="preserve" y="336" stroke="none" /><text x="663" xml:space="preserve" y="336" stroke="none" /><text x="100" xml:space="preserve" y="392" stroke="none" /><text x="321" xml:space="preserve" y="392" stroke="none" /><text x="542" xml:space="preserve" y="392" stroke="none" /><text x="763" xml:space="preserve" y="392" stroke="none" /><text x="0" xml:space="preserve" y="448" stroke="none" /><text x="221" xml:space="preserve" y="448" stroke="none" /><text x="442" xml:space="preserve" y="448" stroke="none" /><text x="663" xml:space="preserve" y="448" stroke="none" /><text x="100" xml:space="preserve" y="504" stroke="none" /><text x="321" xml:space="preserve" y="504" stroke="none" /><text x="542" xml:space="preserve" y="504" stroke="none" /><text x="763" xml:space="preserve" y="504" stroke="none" /><text x="0" xml:space="preserve" y="560" stroke="none" /><text x="221" xml:space="preserve" y="560" stroke="none" /><text x="442" xml:space="preserve" y="560" stroke="none" /><text x="663" xml:space="preserve" y="560" stroke="none" /><text x="100" xml:space="preserve" y="616" stroke="none" /><text x="321" xml:space="preserve" y="616" stroke="none" /><text x="542" xml:space="preserve" y="616" stroke="none" /><text x="763" xml:space="preserve" y="616" stroke="none" /><text x="0" xml:space="preserve" y="672" stroke="none" /><text x="221" xml:space="preserve" y="672" stroke="none" /><text x="442" xml:space="preserve" y="672" stroke="none" /><text x="663" xml:space="preserve" y="672" stroke="none" /><text x="100" xml:space="preserve" y="728" stroke="none" /><text x="321" xml:space="preserve" y="728" stroke="none" /><text x="542" xml:space="preserve" y="728" stroke="none" /><text x="763" xml:space="preserve" y="728" stroke="none" /></g></g></svg>