<?xml version='1.0' encoding='utf-8'?>
<svg xmlns="http://www.w3.org/2000/svg" fill-opacity="0" color-rendering="auto" color-interpolation="auto" text-rendering="auto" stroke="rgb(0,0,0)" stroke-linecap="square" width="965" stroke-miterlimit="10" shape-rendering="auto" stroke-opacity="0" fill="rgb(0,0,0)" stroke-dasharray="none" font-weight="normal" stroke-width="1" height="456" font-family="'Dialog'" font-style="normal" stroke-linejoin="miter" font-size="12px" stroke-dashoffset="0" image-rendering="auto"><defs id="genericDefs" /><g><defs id="defs1"><clipPath clipPathUnits="userSpaceOnUse" id="clipPath1"><path d="M-7 -7 L71 -7 L71 462 L-7 462 L-7 -7 Z" /></clipPath><clipPath clipPathUnits="userSpaceOnUse" id="clipPath2"><path d="M-7 -7 L81 -7 L81 462 L-7 462 L-7 -7 Z" /></clipPath><clipPath clipPathUnits="userSpaceOnUse" id="clipPath3"><path d="M-7 -7 L137 -7 L137 462 L-7 462 L-7 -7 Z" /></clipPath><clipPath clipPathUnits="userSpaceOnUse" id="clipPath4"><path d="M-7 -7 L19 -7 L19 357 L-7 357 L-7 -7 Z" /></clipPath><clipPath clipPathUnits="userSpaceOnUse" id="clipPath5"><path d="M-7 -7 L19 -7 L19 62 L-7 62 L-7 -7 Z" /></clipPath><clipPath clipPathUnits="userSpaceOnUse" id="clipPath6"><path d="M-7 -7 L19 -7 L19 56 L-7 56 L-7 -7 Z" /></clipPath><clipPath clipPathUnits="userSpaceOnUse" id="clipPath7"><path d="M-7 -7 L19 -7 L19 51 L-7 51 L-7 -7 Z" /></clipPath><clipPath clipPathUnits="userSpaceOnUse" id="clipPath8"><path d="M-126 -16 L252 -16 L252 32 L-126 32 L-126 -16 Z" /></clipPath><clipPath clipPathUnits="userSpaceOnUse" id="clipPath9"><path d="M-70 -16 L140 -16 L140 32 L-70 32 L-70 -16 Z" /></clipPath><clipPath clipPathUnits="userSpaceOnUse" id="clipPath10"><path d="M-80 -16 L160 -16 L160 32 L-80 32 L-80 -16 Z" /></clipPath><clipPath clipPathUnits="userSpaceOnUse" id="clipPath11"><path d="M0 0 L455 0 L455 71 L0 71 L0 0 Z" /></clipPath><clipPath clipPathUnits="userSpaceOnUse" id="clipPath12"><path d="M406 12 L406 28 L41 28 L41 12 ZM69 0 L69 4 L0 4 L0 71 L455 71 L455 0 Z" /></clipPath><clipPath clipPathUnits="userSpaceOnUse" id="clipPath13"><path d="M0 0 L527 0 L527 71 L0 71 L0 0 Z" /></clipPath><clipPath clipPathUnits="userSpaceOnUse" id="clipPath14"><path d="M411 10 L411 26 L102 26 L102 10 ZM396 44 L396 60 L119 60 L119 44 ZM13 0 L13 6 L0 6 L0 71 L527 71 L527 0 Z" /></clipPath><clipPath clipPathUnits="userSpaceOnUse" id="clipPath15"><path d="M396 12 L396 28 L119 28 L119 12 ZM0 0 L0 71 L527 71 L527 0 Z" /></clipPath><clipPath clipPathUnits="userSpaceOnUse" id="clipPath16"><path d="M393 11 L393 27 L51 27 L51 11 ZM323 38 L323 54 L127 54 L127 38 ZM0 0 L0 71 L455 71 L455 0 Z" /></clipPath><clipPath clipPathUnits="userSpaceOnUse" id="clipPath17"><path d="M323 12 L323 28 L127 28 L127 12 ZM0 0 L0 71 L455 71 L455 70 L445 70 L445 54 L455 54 L455 0 L393 0 L393 1 L51 1 L51 0 Z" /></clipPath><clipPath clipPathUnits="userSpaceOnUse" id="clipPath18"><path d="M462 12 L462 28 L52 28 L52 12 ZM380 39 L380 55 L142 55 L142 39 ZM0 0 L0 71 L527 71 L527 0 Z" /></clipPath><clipPath clipPathUnits="userSpaceOnUse" id="clipPath19"><path d="M380 11 L380 27 L142 27 L142 11 ZM0 0 L0 71 L527 71 L527 0 Z" /></clipPath><clipPath clipPathUnits="userSpaceOnUse" id="clipPath20"><path d="M393 12 L393 28 L54 28 L54 12 ZM0 0 L0 71 L455 71 L455 0 Z" /></clipPath><clipPath clipPathUnits="userSpaceOnUse" id="clipPath21"><path d="M368 11 L368 27 L80 27 L80 11 ZM0 0 L0 71 L455 71 L455 0 Z" /></clipPath><clipPath clipPathUnits="userSpaceOnUse" id="clipPath22"><path d="M332 12 L332 28 L117 28 L117 12 ZM0 0 L0 71 L54 71 L54 65 L393 65 L393 71 L455 71 L455 0 Z" /></clipPath><clipPath clipPathUnits="userSpaceOnUse" id="clipPath23"><path d="M364 12 L364 28 L158 28 L158 12 ZM406 37 L406 53 L112 53 L112 37 ZM0 0 L0 71 L527 71 L527 0 Z" /></clipPath><clipPath clipPathUnits="userSpaceOnUse" id="clipPath24"><path d="M406 12 L406 28 L112 28 L112 12 ZM0 0 L0 71 L527 71 L527 0 L364 0 L364 3 L158 3 L158 0 Z" /></clipPath><clipPath clipPathUnits="userSpaceOnUse" id="clipPath25"><path d="M-294 -16 L588 -16 L588 32 L-294 32 L-294 -16 Z" /></clipPath><clipPath clipPathUnits="userSpaceOnUse" id="clipPath26"><path d="M-206 -16 L412 -16 L412 32 L-206 32 L-206 -16 Z" /></clipPath><clipPath clipPathUnits="userSpaceOnUse" id="clipPath27"><path d="M-215 -16 L430 -16 L430 32 L-215 32 L-215 -16 Z" /></clipPath><clipPath clipPathUnits="userSpaceOnUse" id="clipPath28"><path d="M-339 -16 L678 -16 L678 32 L-339 32 L-339 -16 Z" /></clipPath><clipPath clipPathUnits="userSpaceOnUse" id="clipPath29"><path d="M-288 -16 L576 -16 L576 32 L-288 32 L-288 -16 Z" /></clipPath><clipPath clipPathUnits="userSpaceOnUse" id="clipPath30"><path d="M-238 -16 L476 -16 L476 32 L-238 32 L-238 -16 Z" /></clipPath><clipPath clipPathUnits="userSpaceOnUse" id="clipPath31"><path d="M-410 -16 L820 -16 L820 32 L-410 32 L-410 -16 Z" /></clipPath><clipPath clipPathUnits="userSpaceOnUse" id="clipPath32"><path d="M-196 -16 L392 -16 L392 32 L-196 32 L-196 -16 Z" /></clipPath><clipPath clipPathUnits="userSpaceOnUse" id="clipPath33"><path d="M-342 -16 L684 -16 L684 32 L-342 32 L-342 -16 Z" /></clipPath><clipPath clipPathUnits="userSpaceOnUse" id="clipPath34"><path d="M-277 -16 L554 -16 L554 32 L-277 32 L-277 -16 Z" /></clipPath><clipPath clipPathUnits="userSpaceOnUse" id="clipPath35"><path d="M-309 -16 L618 -16 L618 32 L-309 32 L-309 -16 Z" /></clipPath><clipPath clipPathUnits="userSpaceOnUse" id="clipPath36"><path d="M-365 -16 L730 -16 L730 32 L-365 32 L-365 -16 Z" /></clipPath></defs><g fill="white" text-rendering="geometricPrecision" fill-opacity="1" stroke-opacity="1" stroke="white"><rect x="0" width="965" height="456" y="0" stroke="none" /></g><g font-size="11px" transform="translate(12,2)" fill-opacity="1" fill="rgb(122,207,245)" text-rendering="geometricPrecision" image-rendering="optimizeQuality" font-family="sans-serif" stroke="rgb(122,207,245)" stroke-opacity="1"><circle r="5" clip-path="url(#clipPath1)" cx="30" cy="5" stroke="none" /><rect x="26" width="8" height="399" y="51" clip-path="url(#clipPath1)" stroke="none" /></g><g stroke-linecap="butt" font-size="11px" transform="translate(12,2)" fill-opacity="1" fill="black" text-rendering="geometricPrecision" image-rendering="optimizeQuality" font-family="sans-serif" stroke-linejoin="round" stroke="black" stroke-opacity="1" stroke-miterlimit="0"><circle fill="none" r="5" clip-path="url(#clipPath1)" cx="30" cy="5" /><rect fill="none" x="26" width="8" height="399" y="51" clip-path="url(#clipPath1)" /><line y2="25" fill="none" x1="30" clip-path="url(#clipPath1)" x2="30" y1="10" /><line y2="36" fill="none" x1="30" clip-path="url(#clipPath1)" x2="21" y1="25" /><line y2="36" fill="none" x1="30" clip-path="url(#clipPath1)" x2="39" y1="25" /><line y2="16" fill="none" x1="21" clip-path="url(#clipPath1)" x2="39" y1="16" /></g><g font-size="11px" transform="translate(400,2)" fill-opacity="1" fill="rgb(122,207,245)" text-rendering="geometricPrecision" image-rendering="optimizeQuality" font-family="sans-serif" stroke="rgb(122,207,245)" stroke-opacity="1"><rect x="0" width="69" height="35" y="0" clip-path="url(#clipPath2)" stroke="none" /></g><g stroke-linecap="butt" font-size="11px" transform="translate(400,2)" fill-opacity="1" fill="black" text-rendering="geometricPrecision" image-rendering="optimizeQuality" font-family="sans-serif" stroke-linejoin="round" stroke="black" stroke-opacity="1" stroke-miterlimit="0"><rect fill="none" x="0" width="69" height="35" y="0" clip-path="url(#clipPath2)" /><line clip-path="url(#clipPath2)" fill="none" x1="34" x2="34" y1="35" y2="451" stroke-linejoin="bevel" stroke-dasharray="8,3" /></g><g font-size="11px" transform="translate(836,2)" fill-opacity="1" fill="rgb(122,207,245)" text-rendering="geometricPrecision" image-rendering="optimizeQuality" font-family="sans-serif" stroke="rgb(122,207,245)" stroke-opacity="1"><rect x="0" width="125" height="35" y="0" clip-path="url(#clipPath3)" stroke="none" /></g><g stroke-linecap="butt" font-size="11px" transform="translate(836,2)" fill-opacity="1" fill="black" text-rendering="geometricPrecision" image-rendering="optimizeQuality" font-family="sans-serif" stroke-linejoin="round" stroke="black" stroke-opacity="1" stroke-miterlimit="0"><rect fill="none" x="0" width="125" height="35" y="0" clip-path="url(#clipPath3)" /><line clip-path="url(#clipPath3)" fill="none" x1="62" x2="62" y1="35" y2="451" stroke-linejoin="bevel" stroke-dasharray="8,3" /></g><g font-size="11px" transform="translate(431,75)" fill-opacity="1" fill="rgb(122,207,245)" text-rendering="geometricPrecision" image-rendering="optimizeQuality" font-family="sans-serif" stroke="rgb(122,207,245)" stroke-opacity="1"><rect x="0" width="8" height="346" y="0" clip-path="url(#clipPath4)" stroke="none" /></g><g stroke-linecap="butt" font-size="11px" transform="translate(431,75)" fill-opacity="1" fill="black" text-rendering="geometricPrecision" image-rendering="optimizeQuality" font-family="sans-serif" stroke-linejoin="round" stroke="black" stroke-opacity="1" stroke-miterlimit="0"><rect fill="none" x="0" width="8" height="346" y="0" clip-path="url(#clipPath4)" /></g><g font-size="11px" transform="translate(895,97)" fill-opacity="1" fill="rgb(122,207,245)" text-rendering="geometricPrecision" image-rendering="optimizeQuality" font-family="sans-serif" stroke="rgb(122,207,245)" stroke-opacity="1"><rect x="0" width="8" height="51" y="0" clip-path="url(#clipPath5)" stroke="none" /></g><g stroke-linecap="butt" font-size="11px" transform="translate(895,97)" fill-opacity="1" fill="black" text-rendering="geometricPrecision" image-rendering="optimizeQuality" font-family="sans-serif" stroke-linejoin="round" stroke="black" stroke-opacity="1" stroke-miterlimit="0"><rect fill="none" x="0" width="8" height="51" y="0" clip-path="url(#clipPath5)" /></g><g font-size="11px" transform="translate(895,225)" fill-opacity="1" fill="rgb(122,207,245)" text-rendering="geometricPrecision" image-rendering="optimizeQuality" font-family="sans-serif" stroke="rgb(122,207,245)" stroke-opacity="1"><rect x="0" width="8" height="45" y="0" clip-path="url(#clipPath6)" stroke="none" /></g><g stroke-linecap="butt" font-size="11px" transform="translate(895,225)" fill-opacity="1" fill="black" text-rendering="geometricPrecision" image-rendering="optimizeQuality" font-family="sans-serif" stroke-linejoin="round" stroke="black" stroke-opacity="1" stroke-miterlimit="0"><rect fill="none" x="0" width="8" height="45" y="0" clip-path="url(#clipPath6)" /></g><g font-size="11px" transform="translate(895,337)" fill-opacity="1" fill="rgb(122,207,245)" text-rendering="geometricPrecision" image-rendering="optimizeQuality" font-family="sans-serif" stroke="rgb(122,207,245)" stroke-opacity="1"><rect x="0" width="8" height="40" y="0" clip-path="url(#clipPath7)" stroke="none" /></g><g stroke-linecap="butt" font-size="11px" transform="translate(895,337)" fill-opacity="1" fill="black" text-rendering="geometricPrecision" image-rendering="optimizeQuality" font-family="sans-serif" stroke-linejoin="round" stroke="black" stroke-opacity="1" stroke-miterlimit="0"><rect fill="none" x="0" width="8" height="40" y="0" clip-path="url(#clipPath7)" /></g><g font-size="11px" transform="translate(836,2)" fill-opacity="1" fill="black" text-rendering="geometricPrecision" image-rendering="optimizeQuality" font-family="sans-serif" stroke="black" stroke-opacity="1"><text x="10" xml:space="preserve" y="12" clip-path="url(#clipPath8)" stroke="none">Warstwa serwerowa</text></g><g font-size="11px" transform="translate(400,2)" fill-opacity="1" fill="black" text-rendering="geometricPrecision" image-rendering="optimizeQuality" font-family="sans-serif" stroke="black" stroke-opacity="1"><text x="12" xml:space="preserve" y="12" clip-path="url(#clipPath9)" stroke="none">Interfejs</text></g><g font-size="11px" transform="translate(2,37)" fill-opacity="1" fill="black" text-rendering="geometricPrecision" image-rendering="optimizeQuality" font-family="sans-serif" stroke="black" stroke-opacity="1"><text x="10" xml:space="preserve" y="12" clip-path="url(#clipPath10)" stroke="none">Użytkownik</text></g><g stroke-linecap="butt" font-size="11px" transform="translate(13,49)" fill-opacity="1" fill="black" text-rendering="geometricPrecision" image-rendering="optimizeQuality" font-family="sans-serif" stroke-linejoin="round" stroke="black" stroke-opacity="1"><line y2="33" fill="none" x1="33" clip-path="url(#clipPath12)" x2="418" y1="33" /><polygon points=" 418 33 406 27 406 39" clip-path="url(#clipPath12)" stroke="none" /><polygon fill="none" points=" 418 33 406 27 406 39" clip-path="url(#clipPath12)" /></g><g stroke-linecap="butt" font-size="11px" transform="translate(406,71)" fill-opacity="1" fill="black" text-rendering="geometricPrecision" image-rendering="optimizeQuality" font-family="sans-serif" stroke-linejoin="round" stroke="black" stroke-opacity="1"><line y2="33" fill="none" x1="33" clip-path="url(#clipPath14)" x2="489" y1="33" /><polygon points=" 489 33 477 27 477 39" clip-path="url(#clipPath14)" stroke="none" /><polygon fill="none" points=" 489 33 477 27 477 39" clip-path="url(#clipPath14)" /></g><g fill-opacity="1" text-rendering="geometricPrecision" stroke="black" stroke-linecap="butt" transform="translate(406,103)" stroke-miterlimit="0" stroke-opacity="1" fill="black" stroke-dasharray="8,3" font-family="sans-serif" stroke-linejoin="round" font-size="11px" image-rendering="optimizeQuality"><line y2="33" fill="none" x1="489" clip-path="url(#clipPath15)" x2="33" y1="33" /><line clip-path="url(#clipPath15)" fill="none" x1="33" x2="45" y1="33" y2="39" stroke-dasharray="none" stroke-miterlimit="10" /><line clip-path="url(#clipPath15)" fill="none" x1="33" x2="45" y1="33" y2="27" stroke-dasharray="none" stroke-miterlimit="10" /></g><g stroke-linecap="butt" font-size="11px" transform="translate(13,129)" fill-opacity="1" fill="black" text-rendering="geometricPrecision" image-rendering="optimizeQuality" font-family="sans-serif" stroke-linejoin="round" stroke="black" stroke-opacity="1"><line y2="33" fill="none" x1="418" clip-path="url(#clipPath16)" x2="33" y1="33" /><polygon points=" 33 33 45 39 45 27" clip-path="url(#clipPath16)" stroke="none" /><polygon fill="none" points=" 33 33 45 39 45 27" clip-path="url(#clipPath16)" /></g><g stroke-linecap="butt" font-size="11px" transform="translate(13,155)" fill-opacity="1" fill="black" text-rendering="geometricPrecision" image-rendering="optimizeQuality" font-family="sans-serif" stroke-linejoin="round" stroke="black" stroke-opacity="1"><line y2="33" fill="none" x1="33" clip-path="url(#clipPath17)" x2="418" y1="33" /><polygon points=" 418 33 406 27 406 39" clip-path="url(#clipPath17)" stroke="none" /><polygon fill="none" points=" 418 33 406 27 406 39" clip-path="url(#clipPath17)" /></g><g stroke-linecap="butt" font-size="11px" transform="translate(406,197)" fill-opacity="1" fill="black" text-rendering="geometricPrecision" image-rendering="optimizeQuality" font-family="sans-serif" stroke-linejoin="round" stroke="black" stroke-opacity="1"><line y2="33" fill="none" x1="33" clip-path="url(#clipPath18)" x2="489" y1="33" /><polygon points=" 489 33 477 27 477 39" clip-path="url(#clipPath18)" stroke="none" /><polygon fill="none" points=" 489 33 477 27 477 39" clip-path="url(#clipPath18)" /></g><g fill-opacity="1" text-rendering="geometricPrecision" stroke="black" stroke-linecap="butt" transform="translate(406,225)" stroke-miterlimit="0" stroke-opacity="1" fill="black" stroke-dasharray="8,3" font-family="sans-serif" stroke-linejoin="round" font-size="11px" image-rendering="optimizeQuality"><line y2="33" fill="none" x1="489" clip-path="url(#clipPath19)" x2="33" y1="33" /><line clip-path="url(#clipPath19)" fill="none" x1="33" x2="45" y1="33" y2="39" stroke-dasharray="none" stroke-miterlimit="10" /><line clip-path="url(#clipPath19)" fill="none" x1="33" x2="45" y1="33" y2="27" stroke-dasharray="none" stroke-miterlimit="10" /></g><g stroke-linecap="butt" font-size="11px" transform="translate(13,291)" fill-opacity="1" fill="black" text-rendering="geometricPrecision" image-rendering="optimizeQuality" font-family="sans-serif" stroke-linejoin="round" stroke="black" stroke-opacity="1"><line y2="33" fill="none" x1="33" clip-path="url(#clipPath20)" x2="418" y1="33" /><polygon points=" 418 33 406 27 406 39" clip-path="url(#clipPath20)" stroke="none" /><polygon fill="none" points=" 418 33 406 27 406 39" clip-path="url(#clipPath20)" /></g><g stroke-linecap="butt" font-size="11px" transform="translate(13,353)" fill-opacity="1" fill="black" text-rendering="geometricPrecision" image-rendering="optimizeQuality" font-family="sans-serif" stroke-linejoin="round" stroke="black" stroke-opacity="1"><line y2="33" fill="none" x1="418" clip-path="url(#clipPath21)" x2="33" y1="33" /><polygon points=" 33 33 45 39 45 27" clip-path="url(#clipPath21)" stroke="none" /><polygon fill="none" points=" 33 33 45 39 45 27" clip-path="url(#clipPath21)" /></g><g stroke-linecap="butt" font-size="11px" transform="translate(13,238)" fill-opacity="1" fill="black" text-rendering="geometricPrecision" image-rendering="optimizeQuality" font-family="sans-serif" stroke-linejoin="round" stroke="black" stroke-opacity="1"><line y2="33" fill="none" x1="418" clip-path="url(#clipPath22)" x2="33" y1="33" /><polygon points=" 33 33 45 39 45 27" clip-path="url(#clipPath22)" stroke="none" /><polygon fill="none" points=" 33 33 45 39 45 27" clip-path="url(#clipPath22)" /></g><g stroke-linecap="butt" font-size="11px" transform="translate(406,310)" fill-opacity="1" fill="black" text-rendering="geometricPrecision" image-rendering="optimizeQuality" font-family="sans-serif" stroke-linejoin="round" stroke="black" stroke-opacity="1"><line y2="33" fill="none" x1="33" clip-path="url(#clipPath23)" x2="489" y1="33" /><polygon points=" 489 33 477 27 477 39" clip-path="url(#clipPath23)" stroke="none" /><polygon fill="none" points=" 489 33 477 27 477 39" clip-path="url(#clipPath23)" /></g><g fill-opacity="1" text-rendering="geometricPrecision" stroke="black" stroke-linecap="butt" transform="translate(406,335)" stroke-miterlimit="0" stroke-opacity="1" fill="black" stroke-dasharray="8,3" font-family="sans-serif" stroke-linejoin="round" font-size="11px" image-rendering="optimizeQuality"><line y2="33" fill="none" x1="489" clip-path="url(#clipPath24)" x2="33" y1="33" /><line clip-path="url(#clipPath24)" fill="none" x1="33" x2="45" y1="33" y2="39" stroke-dasharray="none" stroke-miterlimit="10" /><line clip-path="url(#clipPath24)" fill="none" x1="33" x2="45" y1="33" y2="27" stroke-dasharray="none" stroke-miterlimit="10" /></g><g font-size="11px" transform="translate(518,347)" fill-opacity="1" fill="white" text-rendering="geometricPrecision" image-rendering="optimizeQuality" font-family="sans-serif" stroke="white" stroke-opacity="1"><rect x="0" width="294" height="16" y="0" clip-path="url(#clipPath25)" stroke="none" /><text fill="black" x="9" xml:space="preserve" y="12" clip-path="url(#clipPath25)" stroke="none">3.2: Wysłanie potwierdzenia o zapisie w bazie danych</text></g><g font-size="11px" transform="translate(564,322)" fill-opacity="1" fill="white" text-rendering="geometricPrecision" image-rendering="optimizeQuality" font-family="sans-serif" stroke="white" stroke-opacity="1"><rect x="0" width="206" height="16" y="0" clip-path="url(#clipPath26)" stroke="none" /><text fill="black" x="9" xml:space="preserve" y="12" clip-path="url(#clipPath26)" stroke="none">3.1: Zapisanie zmian w bazie danych</text></g><g font-size="11px" transform="translate(130,250)" fill-opacity="1" fill="white" text-rendering="geometricPrecision" image-rendering="optimizeQuality" font-family="sans-serif" stroke="white" stroke-opacity="1"><rect x="0" width="215" height="16" y="0" clip-path="url(#clipPath27)" stroke="none" /><text fill="black" x="10" xml:space="preserve" y="12" clip-path="url(#clipPath27)" stroke="none">2.3: Wyświetlenie wymagań głównych</text></g><g font-size="11px" transform="translate(67,303)" fill-opacity="1" fill="white" text-rendering="geometricPrecision" image-rendering="optimizeQuality" font-family="sans-serif" stroke="white" stroke-opacity="1"><rect x="0" width="339" height="16" y="0" clip-path="url(#clipPath28)" stroke="none" /><text fill="black" x="9" xml:space="preserve" y="12" clip-path="url(#clipPath28)" stroke="none">3: Wprowadzenie nowych wymagań bądź edycja instniejących</text></g><g font-size="11px" transform="translate(93,364)" fill-opacity="1" fill="white" text-rendering="geometricPrecision" image-rendering="optimizeQuality" font-family="sans-serif" stroke="white" stroke-opacity="1"><rect x="0" width="288" height="16" y="0" clip-path="url(#clipPath29)" stroke="none" /><text fill="black" x="10" xml:space="preserve" y="12" clip-path="url(#clipPath29)" stroke="none">3.3: Pokazanie powiadomienia o powodzeniu zapisu</text></g><g font-size="11px" transform="translate(548,236)" fill-opacity="1" fill="white" text-rendering="geometricPrecision" image-rendering="optimizeQuality" font-family="sans-serif" stroke="white" stroke-opacity="1"><rect x="0" width="238" height="16" y="0" clip-path="url(#clipPath30)" stroke="none" /><text fill="black" x="9" xml:space="preserve" y="12" clip-path="url(#clipPath30)" stroke="none">2.2: Przekazanie listy ograniczeń głównych</text></g><g font-size="11px" transform="translate(458,209)" fill-opacity="1" fill="white" text-rendering="geometricPrecision" image-rendering="optimizeQuality" font-family="sans-serif" stroke="white" stroke-opacity="1"><rect x="0" width="410" height="16" y="0" clip-path="url(#clipPath31)" stroke="none" /><text fill="black" x="10" xml:space="preserve" y="12" clip-path="url(#clipPath31)" stroke="none">2.1: Wysłanie prośby o listę istniejących ograniczeń głównych w tym zbiorze</text></g><g font-size="11px" transform="translate(140,167)" fill-opacity="1" fill="white" text-rendering="geometricPrecision" image-rendering="optimizeQuality" font-family="sans-serif" stroke="white" stroke-opacity="1"><rect x="0" width="196" height="16" y="0" clip-path="url(#clipPath32)" stroke="none" /><text fill="black" x="10" xml:space="preserve" y="12" clip-path="url(#clipPath32)" stroke="none">2: Użytkownik wybiera jeden zbiór</text></g><g font-size="11px" transform="translate(64,140)" fill-opacity="1" fill="white" text-rendering="geometricPrecision" image-rendering="optimizeQuality" font-family="sans-serif" stroke="white" stroke-opacity="1"><rect x="0" width="342" height="16" y="0" clip-path="url(#clipPath33)" stroke="none" /><text fill="black" x="10" xml:space="preserve" y="12" clip-path="url(#clipPath33)" stroke="none">1.3: Wyświetlenie listy zbiorów wymagań głównych do wyboru</text></g><g font-size="11px" transform="translate(525,115)" fill-opacity="1" fill="white" text-rendering="geometricPrecision" image-rendering="optimizeQuality" font-family="sans-serif" stroke="white" stroke-opacity="1"><rect x="0" width="277" height="16" y="0" clip-path="url(#clipPath34)" stroke="none" /><text fill="black" x="9" xml:space="preserve" y="12" clip-path="url(#clipPath34)" stroke="none">1.2: Przekazanie listy zbiorów wymagań głównych</text></g><g font-size="11px" transform="translate(508,81)" fill-opacity="1" fill="white" text-rendering="geometricPrecision" image-rendering="optimizeQuality" font-family="sans-serif" stroke="white" stroke-opacity="1"><rect x="0" width="309" height="16" y="0" clip-path="url(#clipPath35)" stroke="none" /><text fill="black" x="10" xml:space="preserve" y="12" clip-path="url(#clipPath35)" stroke="none">1.1: Wysłanie prośby o listę zbiorów wymagań głównych</text></g><g font-size="11px" transform="translate(54,61)" fill-opacity="1" fill="white" text-rendering="geometricPrecision" image-rendering="optimizeQuality" font-family="sans-serif" stroke="white" stroke-opacity="1"><rect x="0" width="365" height="16" y="0" clip-path="url(#clipPath36)" stroke="none" /><text fill="black" x="9" xml:space="preserve" y="12" clip-path="url(#clipPath36)" stroke="none">1: Użytkownik przechodzi w widok edytowania wymagań głównych</text></g><g font-size="10px" transform="rotate(-45) translate(-323.9348,0)" fill-opacity="1" fill="rgb(120,120,120)" text-rendering="geometricPrecision" image-rendering="optimizeQuality" stroke="rgb(120,120,120)" stroke-opacity="1"><text x="0" xml:space="preserve" y="0" stroke="none" /><text x="221" xml:space="preserve" y="0" stroke="none" /><text x="442" xml:space="preserve" y="0" stroke="none" /><text x="663" xml:space="preserve" y="0" stroke="none" /><text x="884" xml:space="preserve" y="0" stroke="none" /><text x="100" xml:space="preserve" y="56" stroke="none" /><text x="321" xml:space="preserve" y="56" stroke="none" /><text x="542" xml:space="preserve" y="56" stroke="none" /><text x="763" xml:space="preserve" y="56" stroke="none" /><text x="984" xml:space="preserve" y="56" stroke="none" /><text x="0" xml:space="preserve" y="112" stroke="none" /><text x="221" xml:space="preserve" y="112" stroke="none" /><text x="442" xml:space="preserve" y="112" stroke="none" /><text x="663" xml:space="preserve" y="112" stroke="none" /><text x="884" xml:space="preserve" y="112" stroke="none" /><text x="100" xml:space="preserve" y="168" stroke="none" /><text x="321" xml:space="preserve" y="168" stroke="none" /><text x="542" xml:space="preserve" y="168" stroke="none" /><text x="763" xml:space="preserve" y="168" stroke="none" /><text x="984" xml:space="preserve" y="168" stroke="none" /><text x="0" xml:space="preserve" y="224" stroke="none" /><text x="221" xml:space="preserve" y="224" stroke="none" /><text x="442" xml:space="preserve" y="224" stroke="none" /><text x="663" xml:space="preserve" y="224" stroke="none" /><text x="884" xml:space="preserve" y="224" stroke="none" /><text x="100" xml:space="preserve" y="280" stroke="none" /><text x="321" xml:space="preserve" y="280" stroke="none" /><text x="542" xml:space="preserve" y="280" stroke="none" /><text x="763" xml:space="preserve" y="280" stroke="none" /><text x="984" xml:space="preserve" y="280" stroke="none" /><text x="0" xml:space="preserve" y="336" stroke="none" /><text x="221" xml:space="preserve" y="336" stroke="none" /><text x="442" xml:space="preserve" y="336" stroke="none" /><text x="663" xml:space="preserve" y="336" stroke="none" /><text x="884" xml:space="preserve" y="336" stroke="none" /><text x="100" xml:space="preserve" y="392" stroke="none" /><text x="321" xml:space="preserve" y="392" stroke="none" /><text x="542" xml:space="preserve" y="392" stroke="none" /><text x="763" xml:space="preserve" y="392" stroke="none" /><text x="984" xml:space="preserve" y="392" stroke="none" /><text x="0" xml:space="preserve" y="448" stroke="none" /><text x="221" xml:space="preserve" y="448" stroke="none" /><text x="442" xml:space="preserve" y="448" stroke="none" /><text x="663" xml:space="preserve" y="448" stroke="none" /><text x="884" xml:space="preserve" y="448" stroke="none" /><text x="100" xml:space="preserve" y="504" stroke="none" /><text x="321" xml:space="preserve" y="504" stroke="none" /><text x="542" xml:space="preserve" y="504" stroke="none" /><text x="763" xml:space="preserve" y="504" stroke="none" /><text x="984" xml:space="preserve" y="504" stroke="none" /><text x="0" xml:space="preserve" y="560" stroke="none" /><text x="221" xml:space="preserve" y="560" stroke="none" /><text x="442" xml:space="preserve" y="560" stroke="none" /><text x="663" xml:space="preserve" y="560" stroke="none" /><text x="884" xml:space="preserve" y="560" stroke="none" /><text x="100" xml:space="preserve" y="616" stroke="none" /><text x="321" xml:space="preserve" y="616" stroke="none" /><text x="542" xml:space="preserve" y="616" stroke="none" /><text x="763" xml:space="preserve" y="616" stroke="none" /><text x="984" xml:space="preserve" y="616" stroke="none" /><text x="0" xml:space="preserve" y="672" stroke="none" /><text x="221" xml:space="preserve" y="672" stroke="none" /><text x="442" xml:space="preserve" y="672" stroke="none" /><text x="663" xml:space="preserve" y="672" stroke="none" /><text x="884" xml:space="preserve" y="672" stroke="none" /><text x="100" xml:space="preserve" y="728" stroke="none" /><text x="321" xml:space="preserve" y="728" stroke="none" /><text x="542" xml:space="preserve" y="728" stroke="none" /><text x="763" xml:space="preserve" y="728" stroke="none" /><text x="984" xml:space="preserve" y="728" stroke="none" /><text x="0" xml:space="preserve" y="784" stroke="none" /><text x="221" xml:space="preserve" y="784" stroke="none" /><text x="442" xml:space="preserve" y="784" stroke="none" /><text x="663" xml:space="preserve" y="784" stroke="none" /><text x="884" xml:space="preserve" y="784" stroke="none" /><text x="100" xml:space="preserve" y="840" stroke="none" /><text x="321" xml:space="preserve" y="840" stroke="none" /><text x="542" xml:space="preserve" y="840" stroke="none" /><text x="763" xml:space="preserve" y="840" stroke="none" /><text x="984" xml:space="preserve" y="840" stroke="none" /><text x="0" xml:space="preserve" y="896" stroke="none" /><text x="221" xml:space="preserve" y="896" stroke="none" /><text x="442" xml:space="preserve" y="896" stroke="none" /><text x="663" xml:space="preserve" y="896" stroke="none" /><text x="884" xml:space="preserve" y="896" stroke="none" /></g></g></svg>