<?xml version='1.0' encoding='utf-8'?>
<svg xmlns="http://www.w3.org/2000/svg" fill-opacity="0" color-rendering="auto" color-interpolation="auto" text-rendering="auto" stroke="rgb(0,0,0)" stroke-linecap="square" width="810" stroke-miterlimit="10" shape-rendering="auto" stroke-opacity="0" fill="rgb(0,0,0)" stroke-dasharray="none" font-weight="normal" stroke-width="1" height="630" font-family="'Dialog'" font-style="normal" stroke-linejoin="miter" font-size="12px" stroke-dashoffset="0" image-rendering="auto"><defs id="genericDefs" /><g><defs id="defs1"><clipPath clipPathUnits="userSpaceOnUse" id="clipPath1"><path d="M-7 -7 L41 -7 L41 71 L-7 71 L-7 -7 Z" /></clipPath><clipPath clipPathUnits="userSpaceOnUse" id="clipPath2"><path d="M-7 -7 L695 -7 L695 636 L-7 636 L-7 -7 Z" /></clipPath><clipPath clipPathUnits="userSpaceOnUse" id="clipPath3"><path d="M0 0 L0 625 L684 625 L684 0 Z" /></clipPath><clipPath clipPathUnits="userSpaceOnUse" id="clipPath4"><path d="M-7 -7 L233 -7 L233 72 L-7 72 L-7 -7 Z" /></clipPath><clipPath clipPathUnits="userSpaceOnUse" id="clipPath5"><path d="M0 0 L0 61 L222 61 L222 0 Z" /></clipPath><clipPath clipPathUnits="userSpaceOnUse" id="clipPath6"><path d="M-7 -7 L169 -7 L169 62 L-7 62 L-7 -7 Z" /></clipPath><clipPath clipPathUnits="userSpaceOnUse" id="clipPath7"><path d="M0 0 L0 51 L158 51 L158 0 Z" /></clipPath><clipPath clipPathUnits="userSpaceOnUse" id="clipPath8"><path d="M0 -0 L0 61 L222 61 L222 -0 Z" /></clipPath><clipPath clipPathUnits="userSpaceOnUse" id="clipPath9"><path d="M-7 -7 L169 -7 L169 63 L-7 63 L-7 -7 Z" /></clipPath><clipPath clipPathUnits="userSpaceOnUse" id="clipPath10"><path d="M0 -0 L0 52 L158 52 L158 -0 Z" /></clipPath><clipPath clipPathUnits="userSpaceOnUse" id="clipPath11"><path d="M0 -0 L0 51 L158 51 L158 -0 Z" /></clipPath><clipPath clipPathUnits="userSpaceOnUse" id="clipPath12"><path d="M-80 -17 L160 -17 L160 34 L-80 34 L-80 -17 Z" /></clipPath><clipPath clipPathUnits="userSpaceOnUse" id="clipPath13"><path d="M0 0 L201 0 L201 275 L0 275 L0 0 Z" /></clipPath><clipPath clipPathUnits="userSpaceOnUse" id="clipPath14"><path d="M0 0 L0 260 L67 260 L67 275 L201 275 L201 0 Z" /></clipPath><clipPath clipPathUnits="userSpaceOnUse" id="clipPath15"><path d="M0 0 L201 0 L201 87 L0 87 L0 0 Z" /></clipPath><clipPath clipPathUnits="userSpaceOnUse" id="clipPath16"><path d="M0 0 L0 71 L67 71 L67 87 L201 87 L201 0 Z" /></clipPath><clipPath clipPathUnits="userSpaceOnUse" id="clipPath17"><path d="M0 0 L0 72 L67 72 L67 89 L0 89 L0 275 L201 275 L201 0 Z" /></clipPath><clipPath clipPathUnits="userSpaceOnUse" id="clipPath18"><path d="M0 -0 L81 -0 L81 114 L0 114 L0 -0 Z" /></clipPath><clipPath clipPathUnits="userSpaceOnUse" id="clipPath19"><path d="M0 -0 L0 114 L81 114 L81 62 L47 62 L47 46 L81 46 L81 -0 Z" /></clipPath><clipPath clipPathUnits="userSpaceOnUse" id="clipPath20"><path d="M0 -0 L93 -0 L93 85 L0 85 L0 -0 Z" /></clipPath><clipPath clipPathUnits="userSpaceOnUse" id="clipPath21"><path d="M0 -0 L0 85 L93 85 L93 72 L70 72 L70 55 L93 55 L93 42 L59 42 L59 26 L93 26 L93 -0 Z" /></clipPath><clipPath clipPathUnits="userSpaceOnUse" id="clipPath22"><path d="M0 -0 L236 -0 L236 81 L0 81 L0 -0 Z" /></clipPath><clipPath clipPathUnits="userSpaceOnUse" id="clipPath23"><path d="M183 20 L183 37 L101 37 L101 20 ZM0 -0 L0 74 L16 74 L16 81 L91 81 L91 70 L172 70 L172 81 L236 81 L236 -0 L171 -0 L171 7 L90 7 L90 -0 Z" /></clipPath><clipPath clipPathUnits="userSpaceOnUse" id="clipPath24"><path d="M0 -0 L93 -0 L93 86 L0 86 L0 -0 Z" /></clipPath><clipPath clipPathUnits="userSpaceOnUse" id="clipPath25"><path d="M0 -0 L0 86 L93 86 L93 56 L60 56 L60 39 L93 39 L93 6 L70 6 L70 -0 Z" /></clipPath><clipPath clipPathUnits="userSpaceOnUse" id="clipPath26"><path d="M0 0 L190 0 L190 67 L0 67 L0 0 Z" /></clipPath><clipPath clipPathUnits="userSpaceOnUse" id="clipPath27"><path d="M0 0 L0 67 L190 67 L190 41 L180 41 L180 25 L190 25 L190 12 L180 12 L180 0 Z" /></clipPath><clipPath clipPathUnits="userSpaceOnUse" id="clipPath28"><path d="M0 0 L249 0 L249 124 L0 124 L0 0 Z" /></clipPath><clipPath clipPathUnits="userSpaceOnUse" id="clipPath29"><path d="M0 0 L0 124 L249 124 L249 102 L208 102 L208 85 L249 85 L249 68 L208 68 L208 51 L249 51 L249 0 Z" /></clipPath><clipPath clipPathUnits="userSpaceOnUse" id="clipPath30"><path d="M0 -0 L174 -0 L174 51 L0 51 L0 -0 Z" /></clipPath><clipPath clipPathUnits="userSpaceOnUse" id="clipPath31"><path d="M0 -0 L0 51 L174 51 L174 36 L170 36 L170 19 L174 19 L174 2 L170 2 L170 -0 Z" /></clipPath><clipPath clipPathUnits="userSpaceOnUse" id="clipPath32"><path d="M0 0 L170 0 L170 46 L0 46 L0 0 Z" /></clipPath><clipPath clipPathUnits="userSpaceOnUse" id="clipPath33"><path d="M0 0 L0 46 L169 46 L169 44 L170 44 L170 31 L169 31 L169 14 L170 14 L170 0 Z" /></clipPath><clipPath clipPathUnits="userSpaceOnUse" id="clipPath34"><path d="M0 -0 L81 -0 L81 113 L0 113 L0 -0 Z" /></clipPath><clipPath clipPathUnits="userSpaceOnUse" id="clipPath35"><path d="M0 -0 L0 113 L81 113 L81 59 L46 59 L46 43 L81 43 L81 -0 Z" /></clipPath><clipPath clipPathUnits="userSpaceOnUse" id="clipPath36"><path d="M-81 -16 L162 -16 L162 32 L-81 32 L-81 -16 Z" /></clipPath><clipPath clipPathUnits="userSpaceOnUse" id="clipPath37"><path d="M-84 -16 L168 -16 L168 32 L-84 32 L-84 -16 Z" /></clipPath><clipPath clipPathUnits="userSpaceOnUse" id="clipPath38"><path d="M-84 -17 L168 -17 L168 34 L-84 34 L-84 -17 Z" /></clipPath><clipPath clipPathUnits="userSpaceOnUse" id="clipPath39"><path d="M-85 -17 L170 -17 L170 34 L-85 34 L-85 -17 Z" /></clipPath><clipPath clipPathUnits="userSpaceOnUse" id="clipPath40"><path d="M-81 -17 L162 -17 L162 34 L-81 34 L-81 -17 Z" /></clipPath><clipPath clipPathUnits="userSpaceOnUse" id="clipPath41"><path d="M-82 -17 L164 -17 L164 34 L-82 34 L-82 -17 Z" /></clipPath><clipPath clipPathUnits="userSpaceOnUse" id="clipPath42"><path d="M-83 -16 L166 -16 L166 32 L-83 32 L-83 -16 Z" /></clipPath></defs><g fill="white" text-rendering="geometricPrecision" fill-opacity="1" stroke-opacity="1" stroke="white"><rect x="0" width="810" height="630" y="0" stroke="none" /></g><g font-size="11px" transform="translate(27,264.6364)" fill-opacity="1" fill="rgb(122,207,245)" text-rendering="geometricPrecision" image-rendering="optimizeQuality" font-family="sans-serif" stroke="rgb(122,207,245)" stroke-opacity="1"><circle r="7.5" clip-path="url(#clipPath1)" cx="14.5" cy="7.5" stroke="none" /></g><g stroke-linecap="butt" font-size="11px" transform="translate(27,264.6364)" fill-opacity="1" fill="black" text-rendering="geometricPrecision" image-rendering="optimizeQuality" font-family="sans-serif" stroke-linejoin="round" stroke="black" stroke-opacity="1" stroke-miterlimit="0"><circle fill="none" r="7.5" clip-path="url(#clipPath1)" cx="14.5" cy="7.5" /><line y2="40" fill="none" x1="15" clip-path="url(#clipPath1)" x2="15" y1="15" /><line y2="24" fill="none" x1="0" clip-path="url(#clipPath1)" x2="30" y1="24" /><line y2="60" fill="none" x1="15" clip-path="url(#clipPath1)" x2="0" y1="40" /><line y2="60" fill="none" x1="15" clip-path="url(#clipPath1)" x2="30" y1="40" /></g><g font-size="11px" transform="translate(123,1.6364)" fill-opacity="1" fill="rgb(122,207,245)" text-rendering="geometricPrecision" image-rendering="optimizeQuality" font-family="sans-serif" stroke="rgb(122,207,245)" stroke-opacity="1"><rect x="0" width="683" height="624" y="0" clip-path="url(#clipPath2)" stroke="none" /></g><g stroke-linecap="butt" font-size="11px" transform="translate(123,1.6364)" fill-opacity="1" fill="black" text-rendering="geometricPrecision" image-rendering="optimizeQuality" font-family="sans-serif" stroke-linejoin="round" stroke="black" stroke-opacity="1" stroke-miterlimit="0"><rect fill="none" x="0" width="683" height="624" y="0" clip-path="url(#clipPath2)" /></g><g font-size="11px" transform="translate(123,1.6364)" fill-opacity="1" fill="black" text-rendering="geometricPrecision" image-rendering="optimizeQuality" font-family="sans-serif" stroke="black" stroke-opacity="1"><text x="198" xml:space="preserve" y="12" clip-path="url(#clipPath3)" stroke="none">Aplikacja webowa wspomagająca układanie planu lekcji</text></g><g font-size="11px" transform="translate(170,75.6364)" fill-opacity="1" fill="rgb(122,207,245)" text-rendering="geometricPrecision" image-rendering="optimizeQuality" font-family="sans-serif" stroke="rgb(122,207,245)" stroke-opacity="1"><ellipse rx="111" ry="30.5" clip-path="url(#clipPath4)" cx="111" cy="30.5" stroke="none" /></g><g stroke-linecap="butt" font-size="11px" transform="translate(170,75.6364)" fill-opacity="1" fill="black" text-rendering="geometricPrecision" image-rendering="optimizeQuality" font-family="sans-serif" stroke-linejoin="round" stroke="black" stroke-opacity="1" stroke-miterlimit="0"><ellipse rx="111" fill="none" ry="30.5" clip-path="url(#clipPath4)" cx="111" cy="30.5" /></g><g font-size="11px" transform="translate(170,75.6364)" fill-opacity="1" fill="black" text-rendering="geometricPrecision" image-rendering="optimizeQuality" font-family="sans-serif" stroke="black" stroke-opacity="1"><text x="97" xml:space="preserve" y="26" clip-path="url(#clipPath5)" stroke="none">UC01</text><text x="65" xml:space="preserve" y="42" clip-path="url(#clipPath5)" stroke="none">Zobacz plan lekcji</text></g><g font-size="11px" transform="translate(467,24.6364)" fill-opacity="1" fill="rgb(122,207,245)" text-rendering="geometricPrecision" image-rendering="optimizeQuality" font-family="sans-serif" stroke="rgb(122,207,245)" stroke-opacity="1"><ellipse rx="79" ry="25.5" clip-path="url(#clipPath6)" cx="79" cy="25.5" stroke="none" /></g><g stroke-linecap="butt" font-size="11px" transform="translate(467,24.6364)" fill-opacity="1" fill="black" text-rendering="geometricPrecision" image-rendering="optimizeQuality" font-family="sans-serif" stroke-linejoin="round" stroke="black" stroke-opacity="1" stroke-miterlimit="0"><ellipse rx="79" fill="none" ry="25.5" clip-path="url(#clipPath6)" cx="79" cy="25.5" /></g><g font-size="11px" transform="translate(467,24.6364)" fill-opacity="1" fill="black" text-rendering="geometricPrecision" image-rendering="optimizeQuality" font-family="sans-serif" stroke="black" stroke-opacity="1"><text x="64" xml:space="preserve" y="21" clip-path="url(#clipPath7)" stroke="none">UC02</text><text x="41" xml:space="preserve" y="37" clip-path="url(#clipPath7)" stroke="none">Wybierz widok</text></g><g font-size="11px" transform="translate(170,263.6364)" fill-opacity="1" fill="rgb(122,207,245)" text-rendering="geometricPrecision" image-rendering="optimizeQuality" font-family="sans-serif" stroke="rgb(122,207,245)" stroke-opacity="1"><ellipse rx="111" ry="30.5" clip-path="url(#clipPath4)" cx="111" cy="30.5" stroke="none" /></g><g stroke-linecap="butt" font-size="11px" transform="translate(170,263.6364)" fill-opacity="1" fill="black" text-rendering="geometricPrecision" image-rendering="optimizeQuality" font-family="sans-serif" stroke-linejoin="round" stroke="black" stroke-opacity="1" stroke-miterlimit="0"><ellipse rx="111" fill="none" ry="30.5" clip-path="url(#clipPath4)" cx="111" cy="30.5" /></g><g font-size="11px" transform="translate(170,263.6364)" fill-opacity="1" fill="black" text-rendering="geometricPrecision" image-rendering="optimizeQuality" font-family="sans-serif" stroke="black" stroke-opacity="1"><text x="97" xml:space="preserve" y="26" clip-path="url(#clipPath8)" stroke="none">UC04</text><text x="48" xml:space="preserve" y="42" clip-path="url(#clipPath8)" stroke="none">Generuj nowy plan zajęć</text></g><g font-size="11px" transform="translate(467,324.6364)" fill-opacity="1" fill="rgb(122,207,245)" text-rendering="geometricPrecision" image-rendering="optimizeQuality" font-family="sans-serif" stroke="rgb(122,207,245)" stroke-opacity="1"><ellipse rx="79" ry="26" clip-path="url(#clipPath9)" cx="79" cy="26" stroke="none" /></g><g stroke-linecap="butt" font-size="11px" transform="translate(467,324.6364)" fill-opacity="1" fill="black" text-rendering="geometricPrecision" image-rendering="optimizeQuality" font-family="sans-serif" stroke-linejoin="round" stroke="black" stroke-opacity="1" stroke-miterlimit="0"><ellipse rx="79" fill="none" ry="26" clip-path="url(#clipPath9)" cx="79" cy="26" /></g><g font-size="11px" transform="translate(467,324.6364)" fill-opacity="1" fill="black" text-rendering="geometricPrecision" image-rendering="optimizeQuality" font-family="sans-serif" stroke="black" stroke-opacity="1"><text x="65" xml:space="preserve" y="22" clip-path="url(#clipPath10)" stroke="none">UC05</text><text x="13" xml:space="preserve" y="38" clip-path="url(#clipPath10)" stroke="none">Wybierz zbiór ograniczeń</text></g><g font-size="11px" transform="translate(467,212.6364)" fill-opacity="1" fill="rgb(122,207,245)" text-rendering="geometricPrecision" image-rendering="optimizeQuality" font-family="sans-serif" stroke="rgb(122,207,245)" stroke-opacity="1"><ellipse rx="79" ry="25.5" clip-path="url(#clipPath6)" cx="79" cy="25.5" stroke="none" /></g><g stroke-linecap="butt" font-size="11px" transform="translate(467,212.6364)" fill-opacity="1" fill="black" text-rendering="geometricPrecision" image-rendering="optimizeQuality" font-family="sans-serif" stroke-linejoin="round" stroke="black" stroke-opacity="1" stroke-miterlimit="0"><ellipse rx="79" fill="none" ry="25.5" clip-path="url(#clipPath6)" cx="79" cy="25.5" /></g><g font-size="11px" transform="translate(467,212.6364)" fill-opacity="1" fill="black" text-rendering="geometricPrecision" image-rendering="optimizeQuality" font-family="sans-serif" stroke="black" stroke-opacity="1"><text x="64" xml:space="preserve" y="21" clip-path="url(#clipPath7)" stroke="none">UC06</text><text x="22" xml:space="preserve" y="37" clip-path="url(#clipPath7)" stroke="none">Wpisz liczbę generacji</text></g><g font-size="11px" transform="translate(170,451.6364)" fill-opacity="1" fill="rgb(122,207,245)" text-rendering="geometricPrecision" image-rendering="optimizeQuality" font-family="sans-serif" stroke="rgb(122,207,245)" stroke-opacity="1"><ellipse rx="111" ry="30.5" clip-path="url(#clipPath4)" cx="111" cy="30.5" stroke="none" /></g><g stroke-linecap="butt" font-size="11px" transform="translate(170,451.6364)" fill-opacity="1" fill="black" text-rendering="geometricPrecision" image-rendering="optimizeQuality" font-family="sans-serif" stroke-linejoin="round" stroke="black" stroke-opacity="1" stroke-miterlimit="0"><ellipse rx="111" fill="none" ry="30.5" clip-path="url(#clipPath4)" cx="111" cy="30.5" /></g><g font-size="11px" transform="translate(170,451.6364)" fill-opacity="1" fill="black" text-rendering="geometricPrecision" image-rendering="optimizeQuality" font-family="sans-serif" stroke="black" stroke-opacity="1"><text x="97" xml:space="preserve" y="18" clip-path="url(#clipPath8)" stroke="none">UC07</text><text x="17" xml:space="preserve" y="34" clip-path="url(#clipPath8)" stroke="none">Wybierz zasób bądź ograniczenie do</text><text x="77" xml:space="preserve" y="50" clip-path="url(#clipPath8)" stroke="none">przeglądania</text></g><g font-size="11px" transform="translate(467,390.6364)" fill-opacity="1" fill="rgb(122,207,245)" text-rendering="geometricPrecision" image-rendering="optimizeQuality" font-family="sans-serif" stroke="rgb(122,207,245)" stroke-opacity="1"><ellipse rx="79" ry="25.5" clip-path="url(#clipPath6)" cx="79" cy="25.5" stroke="none" /></g><g stroke-linecap="butt" font-size="11px" transform="translate(467,390.6364)" fill-opacity="1" fill="black" text-rendering="geometricPrecision" image-rendering="optimizeQuality" font-family="sans-serif" stroke-linejoin="round" stroke="black" stroke-opacity="1" stroke-miterlimit="0"><ellipse rx="79" fill="none" ry="25.5" clip-path="url(#clipPath6)" cx="79" cy="25.5" /></g><g font-size="11px" transform="translate(467,390.6364)" fill-opacity="1" fill="black" text-rendering="geometricPrecision" image-rendering="optimizeQuality" font-family="sans-serif" stroke="black" stroke-opacity="1"><text x="65" xml:space="preserve" y="21" clip-path="url(#clipPath11)" stroke="none">UC11</text><text x="25" xml:space="preserve" y="37" clip-path="url(#clipPath11)" stroke="none">Imporuj dane z pliku</text></g><g font-size="11px" transform="translate(467,523.6364)" fill-opacity="1" fill="rgb(122,207,245)" text-rendering="geometricPrecision" image-rendering="optimizeQuality" font-family="sans-serif" stroke="rgb(122,207,245)" stroke-opacity="1"><ellipse rx="79" ry="25.5" clip-path="url(#clipPath6)" cx="79" cy="25.5" stroke="none" /></g><g stroke-linecap="butt" font-size="11px" transform="translate(467,523.6364)" fill-opacity="1" fill="black" text-rendering="geometricPrecision" image-rendering="optimizeQuality" font-family="sans-serif" stroke-linejoin="round" stroke="black" stroke-opacity="1" stroke-miterlimit="0"><ellipse rx="79" fill="none" ry="25.5" clip-path="url(#clipPath6)" cx="79" cy="25.5" /></g><g font-size="11px" transform="translate(467,523.6364)" fill-opacity="1" fill="black" text-rendering="geometricPrecision" image-rendering="optimizeQuality" font-family="sans-serif" stroke="black" stroke-opacity="1"><text x="65" xml:space="preserve" y="21" clip-path="url(#clipPath11)" stroke="none">UC09</text><text x="17" xml:space="preserve" y="37" clip-path="url(#clipPath11)" stroke="none">Wprowadź dane ręcznie</text></g><g font-size="11px" transform="translate(547,457.6364)" fill-opacity="1" fill="rgb(122,207,245)" text-rendering="geometricPrecision" image-rendering="optimizeQuality" font-family="sans-serif" stroke="rgb(122,207,245)" stroke-opacity="1"><ellipse rx="79" ry="25.5" clip-path="url(#clipPath6)" cx="79" cy="25.5" stroke="none" /></g><g stroke-linecap="butt" font-size="11px" transform="translate(547,457.6364)" fill-opacity="1" fill="black" text-rendering="geometricPrecision" image-rendering="optimizeQuality" font-family="sans-serif" stroke-linejoin="round" stroke="black" stroke-opacity="1" stroke-miterlimit="0"><ellipse rx="79" fill="none" ry="25.5" clip-path="url(#clipPath6)" cx="79" cy="25.5" /></g><g font-size="11px" transform="translate(547,457.6364)" fill-opacity="1" fill="black" text-rendering="geometricPrecision" image-rendering="optimizeQuality" font-family="sans-serif" stroke="black" stroke-opacity="1"><text x="64" xml:space="preserve" y="21" clip-path="url(#clipPath11)" stroke="none">UC10</text><text x="48" xml:space="preserve" y="37" clip-path="url(#clipPath11)" stroke="none">Edytuj dane</text></g><g font-size="11px" transform="translate(170,357.6364)" fill-opacity="1" fill="rgb(122,207,245)" text-rendering="geometricPrecision" image-rendering="optimizeQuality" font-family="sans-serif" stroke="rgb(122,207,245)" stroke-opacity="1"><ellipse rx="111" ry="30.5" clip-path="url(#clipPath4)" cx="111" cy="30.5" stroke="none" /></g><g stroke-linecap="butt" font-size="11px" transform="translate(170,357.6364)" fill-opacity="1" fill="black" text-rendering="geometricPrecision" image-rendering="optimizeQuality" font-family="sans-serif" stroke-linejoin="round" stroke="black" stroke-opacity="1" stroke-miterlimit="0"><ellipse rx="111" fill="none" ry="30.5" clip-path="url(#clipPath4)" cx="111" cy="30.5" /></g><g font-size="11px" transform="translate(170,357.6364)" fill-opacity="1" fill="black" text-rendering="geometricPrecision" image-rendering="optimizeQuality" font-family="sans-serif" stroke="black" stroke-opacity="1"><text x="96" xml:space="preserve" y="18" clip-path="url(#clipPath8)" stroke="none">UC08</text><text x="20" xml:space="preserve" y="34" clip-path="url(#clipPath8)" stroke="none">Wybierz zbiór danego zasobu bądź</text><text x="77" xml:space="preserve" y="50" clip-path="url(#clipPath8)" stroke="none">ograniczenia</text></g><g font-size="11px" transform="translate(467,136.6364)" fill-opacity="1" fill="rgb(122,207,245)" text-rendering="geometricPrecision" image-rendering="optimizeQuality" font-family="sans-serif" stroke="rgb(122,207,245)" stroke-opacity="1"><ellipse rx="79" ry="25.5" clip-path="url(#clipPath6)" cx="79" cy="25.5" stroke="none" /></g><g stroke-linecap="butt" font-size="11px" transform="translate(467,136.6364)" fill-opacity="1" fill="black" text-rendering="geometricPrecision" image-rendering="optimizeQuality" font-family="sans-serif" stroke-linejoin="round" stroke="black" stroke-opacity="1" stroke-miterlimit="0"><ellipse rx="79" fill="none" ry="25.5" clip-path="url(#clipPath6)" cx="79" cy="25.5" /></g><g font-size="11px" transform="translate(467,136.6364)" fill-opacity="1" fill="black" text-rendering="geometricPrecision" image-rendering="optimizeQuality" font-family="sans-serif" stroke="black" stroke-opacity="1"><text x="65" xml:space="preserve" y="21" clip-path="url(#clipPath7)" stroke="none">UC03</text><text x="31" xml:space="preserve" y="37" clip-path="url(#clipPath7)" stroke="none">Wybierz plan lekcji</text></g><g font-size="11px" transform="translate(170,545.6364)" fill-opacity="1" fill="rgb(122,207,245)" text-rendering="geometricPrecision" image-rendering="optimizeQuality" font-family="sans-serif" stroke="rgb(122,207,245)" stroke-opacity="1"><ellipse rx="111" ry="30.5" clip-path="url(#clipPath4)" cx="111" cy="30.5" stroke="none" /></g><g stroke-linecap="butt" font-size="11px" transform="translate(170,545.6364)" fill-opacity="1" fill="black" text-rendering="geometricPrecision" image-rendering="optimizeQuality" font-family="sans-serif" stroke-linejoin="round" stroke="black" stroke-opacity="1" stroke-miterlimit="0"><ellipse rx="111" fill="none" ry="30.5" clip-path="url(#clipPath4)" cx="111" cy="30.5" /></g><g font-size="11px" transform="translate(170,545.6364)" fill-opacity="1" fill="black" text-rendering="geometricPrecision" image-rendering="optimizeQuality" font-family="sans-serif" stroke="black" stroke-opacity="1"><text x="96" xml:space="preserve" y="18" clip-path="url(#clipPath8)" stroke="none">UC12</text><text x="25" xml:space="preserve" y="34" clip-path="url(#clipPath8)" stroke="none">Stwórz nowy zbiór zasobów bądź</text><text x="81" xml:space="preserve" y="50" clip-path="url(#clipPath8)" stroke="none">ograniczeń</text></g><g font-size="11px" transform="translate(2,324.6364)" fill-opacity="1" fill="black" text-rendering="geometricPrecision" image-rendering="optimizeQuality" font-family="sans-serif" stroke="black" stroke-opacity="1"><text x="10" xml:space="preserve" y="12" clip-path="url(#clipPath12)" stroke="none">Użytkownik</text></g><g stroke-linecap="butt" font-size="11px" transform="translate(15,64.6364)" fill-opacity="1" fill="black" text-rendering="geometricPrecision" image-rendering="optimizeQuality" font-family="sans-serif" stroke-linejoin="round" stroke="black" stroke-opacity="1"><line y2="229" fill="none" x1="42" clip-path="url(#clipPath14)" x2="74" y1="229" /><line y2="42" fill="none" x1="74" clip-path="url(#clipPath14)" x2="74" y1="229" /><line y2="42" fill="none" x1="74" clip-path="url(#clipPath14)" x2="155" y1="42" /></g><g stroke-linecap="butt" font-size="11px" transform="translate(15,253.6364)" fill-opacity="1" fill="black" text-rendering="geometricPrecision" image-rendering="optimizeQuality" font-family="sans-serif" stroke-linejoin="round" stroke="black" stroke-opacity="1"><line y2="42" fill="none" x1="42" clip-path="url(#clipPath16)" x2="155" y1="42" /></g><g stroke-linecap="butt" font-size="11px" transform="translate(15,252.6364)" fill-opacity="1" fill="black" text-rendering="geometricPrecision" image-rendering="optimizeQuality" font-family="sans-serif" stroke-linejoin="round" stroke="black" stroke-opacity="1"><line y2="42" fill="none" x1="42" clip-path="url(#clipPath17)" x2="74" y1="42" /><line y2="229" fill="none" x1="74" clip-path="url(#clipPath17)" x2="74" y1="42" /><line y2="229" fill="none" x1="74" clip-path="url(#clipPath17)" x2="155" y1="229" /></g><g stroke-linecap="butt" font-size="11px" transform="translate(243,380.6364)" fill-opacity="1" fill="black" text-rendering="geometricPrecision" image-rendering="optimizeQuality" font-family="sans-serif" stroke-linejoin="round" stroke-dasharray="4" stroke="black" stroke-opacity="1"><line y2="38" fill="none" x1="38" clip-path="url(#clipPath19)" x2="38" y1="72" /><line clip-path="url(#clipPath19)" fill="none" x1="38" x2="32" y1="38" y2="50" stroke-dasharray="none" /><line clip-path="url(#clipPath19)" fill="none" x1="38" x2="44" y1="38" y2="50" stroke-dasharray="none" /></g><g stroke-linecap="butt" font-size="11px" transform="translate(385,408.6364)" fill-opacity="1" fill="black" text-rendering="geometricPrecision" image-rendering="optimizeQuality" font-family="sans-serif" stroke-linejoin="round" stroke-dasharray="4" stroke="black" stroke-opacity="1"><line y2="73" fill="none" x1="8" clip-path="url(#clipPath21)" x2="57" y1="73" /><line y2="8" fill="none" x1="57" clip-path="url(#clipPath21)" x2="57" y1="73" /><line y2="8" fill="none" x1="57" clip-path="url(#clipPath21)" x2="82" y1="8" /><line clip-path="url(#clipPath21)" fill="none" x1="8" x2="20" y1="73" y2="79" stroke-dasharray="none" /><line clip-path="url(#clipPath21)" fill="none" x1="8" x2="20" y1="73" y2="67" stroke-dasharray="none" /></g><g stroke-linecap="butt" font-size="11px" transform="translate(354,443.6364)" fill-opacity="1" fill="black" text-rendering="geometricPrecision" image-rendering="optimizeQuality" font-family="sans-serif" stroke-linejoin="round" stroke-dasharray="4" stroke="black" stroke-opacity="1"><line y2="38" fill="none" x1="193" clip-path="url(#clipPath23)" x2="38" y1="38" /><line clip-path="url(#clipPath23)" fill="none" x1="38" x2="50" y1="38" y2="44" stroke-dasharray="none" /><line clip-path="url(#clipPath23)" fill="none" x1="38" x2="50" y1="38" y2="32" stroke-dasharray="none" /></g><g stroke-linecap="butt" font-size="11px" transform="translate(385,474.6364)" fill-opacity="1" fill="black" text-rendering="geometricPrecision" image-rendering="optimizeQuality" font-family="sans-serif" stroke-linejoin="round" stroke-dasharray="4" stroke="black" stroke-opacity="1"><line y2="8" fill="none" x1="8" clip-path="url(#clipPath25)" x2="57" y1="8" /><line y2="75" fill="none" x1="57" clip-path="url(#clipPath25)" x2="57" y1="8" /><line y2="75" fill="none" x1="57" clip-path="url(#clipPath25)" x2="82" y1="75" /><line clip-path="url(#clipPath25)" fill="none" x1="8" x2="20" y1="8" y2="14" stroke-dasharray="none" /><line clip-path="url(#clipPath25)" fill="none" x1="8" x2="20" y1="8" y2="2" stroke-dasharray="none" /></g><g stroke-linecap="butt" font-size="11px" transform="translate(376,89.6364)" fill-opacity="1" fill="black" text-rendering="geometricPrecision" image-rendering="optimizeQuality" font-family="sans-serif" stroke-linejoin="round" stroke-dasharray="4" stroke="black" stroke-opacity="1"><line y2="17" fill="none" x1="17" clip-path="url(#clipPath27)" x2="170" y1="17" /><line y2="46" fill="none" x1="170" clip-path="url(#clipPath27)" x2="170" y1="17" /><line clip-path="url(#clipPath27)" fill="none" x1="170" x2="176" y1="46" y2="34" stroke-dasharray="none" /><line clip-path="url(#clipPath27)" fill="none" x1="170" x2="164" y1="46" y2="34" stroke-dasharray="none" /></g><g stroke-linecap="butt" font-size="11px" transform="translate(347,219.6364)" fill-opacity="1" fill="black" text-rendering="geometricPrecision" image-rendering="optimizeQuality" font-family="sans-serif" stroke-linejoin="round" stroke-dasharray="4" stroke="black" stroke-opacity="1"><line y2="75" fill="none" x1="45" clip-path="url(#clipPath29)" x2="199" y1="75" /><line y2="45" fill="none" x1="199" clip-path="url(#clipPath29)" x2="199" y1="75" /><line clip-path="url(#clipPath29)" fill="none" x1="199" x2="193" y1="45" y2="57" stroke-dasharray="none" /><line clip-path="url(#clipPath29)" fill="none" x1="199" x2="205" y1="45" y2="57" stroke-dasharray="none" /></g><g stroke-linecap="butt" font-size="11px" transform="translate(385,285.6364)" fill-opacity="1" fill="black" text-rendering="geometricPrecision" image-rendering="optimizeQuality" font-family="sans-serif" stroke-linejoin="round" stroke-dasharray="4" stroke="black" stroke-opacity="1"><line y2="8" fill="none" x1="8" clip-path="url(#clipPath31)" x2="161" y1="8" /><line y2="9" fill="none" x1="161" clip-path="url(#clipPath31)" x2="162" y1="8" /><line y2="39" fill="none" x1="162" clip-path="url(#clipPath31)" x2="162" y1="9" /><line clip-path="url(#clipPath31)" fill="none" x1="162" x2="168" y1="39" y2="27" stroke-dasharray="none" /><line clip-path="url(#clipPath31)" fill="none" x1="162" x2="156" y1="39" y2="27" stroke-dasharray="none" /></g><g stroke-linecap="butt" font-size="11px" transform="translate(387,70.6364)" fill-opacity="1" fill="black" text-rendering="geometricPrecision" image-rendering="optimizeQuality" font-family="sans-serif" stroke-linejoin="round" stroke-dasharray="4" stroke="black" stroke-opacity="1"><line y2="36" fill="none" x1="6" clip-path="url(#clipPath33)" x2="159" y1="36" /><line y2="6" fill="none" x1="159" clip-path="url(#clipPath33)" x2="159" y1="36" /><line clip-path="url(#clipPath33)" fill="none" x1="159" x2="153" y1="6" y2="18" stroke-dasharray="none" /><line clip-path="url(#clipPath33)" fill="none" x1="159" x2="165" y1="6" y2="18" stroke-dasharray="none" /></g><g stroke-linecap="butt" font-size="11px" transform="translate(243,474.6364)" fill-opacity="1" fill="black" text-rendering="geometricPrecision" image-rendering="optimizeQuality" font-family="sans-serif" stroke-linejoin="round" stroke-dasharray="4" stroke="black" stroke-opacity="1"><line y2="71" fill="none" x1="38" clip-path="url(#clipPath35)" x2="38" y1="38" /><line clip-path="url(#clipPath35)" fill="none" x1="38" x2="44" y1="71" y2="59" stroke-dasharray="none" /><line clip-path="url(#clipPath35)" fill="none" x1="38" x2="32" y1="71" y2="59" stroke-dasharray="none" /></g><g font-size="11px" transform="translate(289,517.6364)" fill-opacity="1" fill="black" text-rendering="geometricPrecision" image-rendering="optimizeQuality" font-family="sans-serif" stroke="black" stroke-opacity="1"><text x="10" xml:space="preserve" y="12" clip-path="url(#clipPath36)" stroke="none">&lt;&lt;Extend&gt;&gt;</text></g><g font-size="11px" transform="translate(556,114.6364)" fill-opacity="1" fill="black" text-rendering="geometricPrecision" image-rendering="optimizeQuality" font-family="sans-serif" stroke="black" stroke-opacity="1"><text x="10" xml:space="preserve" y="12" clip-path="url(#clipPath37)" stroke="none">&lt;&lt;Include&gt;&gt;</text></g><g font-size="11px" transform="translate(555,270.6364)" fill-opacity="1" fill="black" text-rendering="geometricPrecision" image-rendering="optimizeQuality" font-family="sans-serif" stroke="black" stroke-opacity="1"><text x="10" xml:space="preserve" y="12" clip-path="url(#clipPath38)" stroke="none">&lt;&lt;Include&gt;&gt;</text></g><g font-size="11px" transform="translate(555,304.6364)" fill-opacity="1" fill="black" text-rendering="geometricPrecision" image-rendering="optimizeQuality" font-family="sans-serif" stroke="black" stroke-opacity="1"><text x="10" xml:space="preserve" y="12" clip-path="url(#clipPath38)" stroke="none">&lt;&lt;Include&gt;&gt;</text></g><g font-size="11px" transform="translate(556,84.6364)" fill-opacity="1" fill="black" text-rendering="geometricPrecision" image-rendering="optimizeQuality" font-family="sans-serif" stroke="black" stroke-opacity="1"><text x="10" xml:space="preserve" y="12" clip-path="url(#clipPath39)" stroke="none">&lt;&lt;Include&gt;&gt;</text></g><g font-size="11px" transform="translate(445,513.6364)" fill-opacity="1" fill="black" text-rendering="geometricPrecision" image-rendering="optimizeQuality" font-family="sans-serif" stroke="black" stroke-opacity="1"><text x="10" xml:space="preserve" y="12" clip-path="url(#clipPath40)" stroke="none">&lt;&lt;Extend&gt;&gt;</text></g><g font-size="11px" transform="translate(455,463.6364)" fill-opacity="1" fill="black" text-rendering="geometricPrecision" image-rendering="optimizeQuality" font-family="sans-serif" stroke="black" stroke-opacity="1"><text x="10" xml:space="preserve" y="12" clip-path="url(#clipPath41)" stroke="none">&lt;&lt;Extend&gt;&gt;</text></g><g font-size="11px" transform="translate(444,434.6364)" fill-opacity="1" fill="black" text-rendering="geometricPrecision" image-rendering="optimizeQuality" font-family="sans-serif" stroke="black" stroke-opacity="1"><text x="10" xml:space="preserve" y="12" clip-path="url(#clipPath36)" stroke="none">&lt;&lt;Extend&gt;&gt;</text></g><g font-size="11px" transform="translate(290,426.6364)" fill-opacity="1" fill="black" text-rendering="geometricPrecision" image-rendering="optimizeQuality" font-family="sans-serif" stroke="black" stroke-opacity="1"><text x="9" xml:space="preserve" y="12" clip-path="url(#clipPath42)" stroke="none">&lt;&lt;Include&gt;&gt;</text></g><g font-size="10px" transform="rotate(-45) translate(-446.2435,0)" fill-opacity="1" fill="rgb(120,120,120)" text-rendering="geometricPrecision" image-rendering="optimizeQuality" stroke="rgb(120,120,120)" stroke-opacity="1"><text x="0" xml:space="preserve" y="0" stroke="none" /><text x="221" xml:space="preserve" y="0" stroke="none" /><text x="442" xml:space="preserve" y="0" stroke="none" /><text x="663" xml:space="preserve" y="0" stroke="none" /><text x="884" xml:space="preserve" y="0" stroke="none" /><text x="100" xml:space="preserve" y="56" stroke="none" /><text x="321" xml:space="preserve" y="56" stroke="none" /><text x="542" xml:space="preserve" y="56" stroke="none" /><text x="763" xml:space="preserve" y="56" stroke="none" /><text x="984" xml:space="preserve" y="56" stroke="none" /><text x="0" xml:space="preserve" y="112" stroke="none" /><text x="221" xml:space="preserve" y="112" stroke="none" /><text x="442" xml:space="preserve" y="112" stroke="none" /><text x="663" xml:space="preserve" y="112" stroke="none" /><text x="884" xml:space="preserve" y="112" stroke="none" /><text x="100" xml:space="preserve" y="168" stroke="none" /><text x="321" xml:space="preserve" y="168" stroke="none" /><text x="542" xml:space="preserve" y="168" stroke="none" /><text x="763" xml:space="preserve" y="168" stroke="none" /><text x="984" xml:space="preserve" y="168" stroke="none" /><text x="0" xml:space="preserve" y="224" stroke="none" /><text x="221" xml:space="preserve" y="224" stroke="none" /><text x="442" xml:space="preserve" y="224" stroke="none" /><text x="663" xml:space="preserve" y="224" stroke="none" /><text x="884" xml:space="preserve" y="224" stroke="none" /><text x="100" xml:space="preserve" y="280" stroke="none" /><text x="321" xml:space="preserve" y="280" stroke="none" /><text x="542" xml:space="preserve" y="280" stroke="none" /><text x="763" xml:space="preserve" y="280" stroke="none" /><text x="984" xml:space="preserve" y="280" stroke="none" /><text x="0" xml:space="preserve" y="336" stroke="none" /><text x="221" xml:space="preserve" y="336" stroke="none" /><text x="442" xml:space="preserve" y="336" stroke="none" /><text x="663" xml:space="preserve" y="336" stroke="none" /><text x="884" xml:space="preserve" y="336" stroke="none" /><text x="100" xml:space="preserve" y="392" stroke="none" /><text x="321" xml:space="preserve" y="392" stroke="none" /><text x="542" xml:space="preserve" y="392" stroke="none" /><text x="763" xml:space="preserve" y="392" stroke="none" /><text x="984" xml:space="preserve" y="392" stroke="none" /><text x="0" xml:space="preserve" y="448" stroke="none" /><text x="221" xml:space="preserve" y="448" stroke="none" /><text x="442" xml:space="preserve" y="448" stroke="none" /><text x="663" xml:space="preserve" y="448" stroke="none" /><text x="884" xml:space="preserve" y="448" stroke="none" /><text x="100" xml:space="preserve" y="504" stroke="none" /><text x="321" xml:space="preserve" y="504" stroke="none" /><text x="542" xml:space="preserve" y="504" stroke="none" /><text x="763" xml:space="preserve" y="504" stroke="none" /><text x="984" xml:space="preserve" y="504" stroke="none" /><text x="0" xml:space="preserve" y="560" stroke="none" /><text x="221" xml:space="preserve" y="560" stroke="none" /><text x="442" xml:space="preserve" y="560" stroke="none" /><text x="663" xml:space="preserve" y="560" stroke="none" /><text x="884" xml:space="preserve" y="560" stroke="none" /><text x="100" xml:space="preserve" y="616" stroke="none" /><text x="321" xml:space="preserve" y="616" stroke="none" /><text x="542" xml:space="preserve" y="616" stroke="none" /><text x="763" xml:space="preserve" y="616" stroke="none" /><text x="984" xml:space="preserve" y="616" stroke="none" /><text x="0" xml:space="preserve" y="672" stroke="none" /><text x="221" xml:space="preserve" y="672" stroke="none" /><text x="442" xml:space="preserve" y="672" stroke="none" /><text x="663" xml:space="preserve" y="672" stroke="none" /><text x="884" xml:space="preserve" y="672" stroke="none" /><text x="100" xml:space="preserve" y="728" stroke="none" /><text x="321" xml:space="preserve" y="728" stroke="none" /><text x="542" xml:space="preserve" y="728" stroke="none" /><text x="763" xml:space="preserve" y="728" stroke="none" /><text x="984" xml:space="preserve" y="728" stroke="none" /><text x="0" xml:space="preserve" y="784" stroke="none" /><text x="221" xml:space="preserve" y="784" stroke="none" /><text x="442" xml:space="preserve" y="784" stroke="none" /><text x="663" xml:space="preserve" y="784" stroke="none" /><text x="884" xml:space="preserve" y="784" stroke="none" /><text x="100" xml:space="preserve" y="840" stroke="none" /><text x="321" xml:space="preserve" y="840" stroke="none" /><text x="542" xml:space="preserve" y="840" stroke="none" /><text x="763" xml:space="preserve" y="840" stroke="none" /><text x="984" xml:space="preserve" y="840" stroke="none" /><text x="0" xml:space="preserve" y="896" stroke="none" /><text x="221" xml:space="preserve" y="896" stroke="none" /><text x="442" xml:space="preserve" y="896" stroke="none" /><text x="663" xml:space="preserve" y="896" stroke="none" /><text x="884" xml:space="preserve" y="896" stroke="none" /><text x="100" xml:space="preserve" y="952" stroke="none" /><text x="321" xml:space="preserve" y="952" stroke="none" /><text x="542" xml:space="preserve" y="952" stroke="none" /><text x="763" xml:space="preserve" y="952" stroke="none" /><text x="984" xml:space="preserve" y="952" stroke="none" /></g></g></svg>